<svg width="354" height="122" viewBox="0 0 354 122" fill="none" xmlns="http://www.w3.org/2000/svg">
<g filter="url(#filter0_i_9_7)">
<rect x="7" y="11" width="340" height="104" rx="52" fill="url(#paint0_linear_9_7)"/>
<rect x="3.5" y="7.5" width="347" height="111" rx="55.5" stroke="white" stroke-width="7"/>
</g>
<g filter="url(#filter1_i_9_7)">
<rect x="7" width="340" height="104" rx="52" fill="url(#paint1_linear_9_7)"/>
<rect x="10.5" y="3.5" width="333" height="97" rx="48.5" stroke="url(#paint2_linear_9_7)" stroke-width="7"/>
<path d="M66.4 65C65.9333 65.4 65.2 65.75 64.2 66.05C63.2333 66.35 62.1667 66.5 61 66.5C59.6333 66.5 58.4333 66.3 57.4 65.9C56.4 65.4667 55.7167 64.8833 55.35 64.15C54.8833 63.2167 54.3333 61.9833 53.7 60.45C53.0667 58.9167 52.3833 57.1833 51.65 55.25C50.9167 53.3167 50.1833 51.3167 49.45 49.25C48.7167 47.1833 48.0333 45.1333 47.4 43.1C46.8 41.0333 46.2833 39.1333 45.85 37.4C46.3167 36.9333 46.9833 36.5167 47.85 36.15C48.75 35.75 49.7 35.55 50.7 35.55C51.9333 35.55 52.9333 35.8167 53.7 36.35C54.5 36.8833 55.0833 37.8333 55.45 39.2C56.35 42.4667 57.25 45.6 58.15 48.6C59.0833 51.5667 60.05 54.6667 61.05 57.9H61.35C61.95 55.8333 62.55 53.6167 63.15 51.25C63.7833 48.8833 64.4167 46.4667 65.05 44C65.6833 41.5 66.2833 39.0333 66.85 36.6C67.45 36.3 68.1 36.05 68.8 35.85C69.5 35.65 70.2667 35.55 71.1 35.55C72.3333 35.55 73.3833 35.8333 74.25 36.4C75.1167 36.9333 75.55 37.8333 75.55 39.1C75.55 39.8 75.3833 40.85 75.05 42.25C74.7167 43.65 74.2667 45.25 73.7 47.05C73.1333 48.8167 72.5 50.65 71.8 52.55C71.1333 54.4167 70.45 56.2 69.75 57.9C69.0833 59.6 68.45 61.0833 67.85 62.35C67.25 63.6167 66.7667 64.5 66.4 65ZM79.9395 43.9H88.6895V65.95C88.3228 66.05 87.7561 66.15 86.9895 66.25C86.2228 66.35 85.4395 66.4 84.6395 66.4C82.9061 66.4 81.6895 66.1 80.9895 65.5C80.2895 64.8667 79.9395 63.7833 79.9395 62.25V43.9ZM88.6895 55.45H79.9395V35.6C80.3395 35.5333 80.9228 35.45 81.6895 35.35C82.4895 35.2167 83.2561 35.15 83.9895 35.15C85.6561 35.15 86.8561 35.4333 87.5895 36C88.3228 36.5667 88.6895 37.6667 88.6895 39.3V55.45ZM95.1738 43.9H103.674V65.7C103.307 65.8 102.774 65.9 102.074 66C101.374 66.1 100.624 66.15 99.8238 66.15C98.3905 66.15 97.2572 65.7333 96.4238 64.9C95.5905 64.0667 95.1738 62.9333 95.1738 61.5V43.9ZM103.674 57.95H95.1738V40.35C95.1738 38.9167 95.5905 37.7833 96.4238 36.95C97.2572 36.1167 98.3905 35.7 99.8238 35.7C100.624 35.7 101.374 35.75 102.074 35.85C102.774 35.95 103.307 36.05 103.674 36.15V57.95ZM99.8238 54V47.2H114.924C115.157 47.5667 115.357 48.0333 115.524 48.6C115.724 49.1667 115.824 49.8 115.824 50.5C115.824 51.7333 115.557 52.6333 115.024 53.2C114.49 53.7333 113.757 54 112.824 54H99.8238ZM99.8238 66.15V59.25H116.524C116.757 59.6167 116.957 60.1 117.124 60.7C117.324 61.3 117.424 61.95 117.424 62.65C117.424 63.8833 117.157 64.7833 116.624 65.35C116.09 65.8833 115.357 66.15 114.424 66.15H99.8238ZM99.8238 42.55V35.7H116.324C116.557 36.0667 116.757 36.5333 116.924 37.1C117.124 37.6667 117.224 38.3 117.224 39C117.224 40.2333 116.957 41.1333 116.424 41.7C115.89 42.2667 115.157 42.55 114.224 42.55H99.8238ZM136.566 43.1C136.933 42.9333 137.5 42.75 138.266 42.55C139.066 42.3167 139.866 42.2 140.666 42.2C142.066 42.2 143.233 42.4167 144.166 42.85C145.1 43.25 145.666 43.85 145.866 44.65C146.366 46.4833 146.816 48.15 147.216 49.65C147.616 51.15 148 52.6 148.366 54C148.766 55.4 149.15 56.8833 149.516 58.45H149.766C150.166 55.7167 150.5 53.15 150.766 50.75C151.066 48.3167 151.35 45.95 151.616 43.65C151.883 41.3167 152.15 38.95 152.416 36.55C153.683 35.85 155 35.5 156.366 35.5C157.6 35.5 158.666 35.7667 159.566 36.3C160.466 36.8333 160.916 37.7333 160.916 39C160.916 39.7333 160.833 40.7667 160.666 42.1C160.533 43.4333 160.333 44.95 160.066 46.65C159.833 48.35 159.55 50.1 159.216 51.9C158.883 53.7 158.533 55.45 158.166 57.15C157.8 58.85 157.416 60.3667 157.016 61.7C156.65 63.0333 156.3 64.0667 155.966 64.8C155.466 65.2333 154.65 65.6167 153.516 65.95C152.383 66.25 151.216 66.4 150.016 66.4C148.483 66.4 147.166 66.1833 146.066 65.75C144.966 65.3167 144.3 64.7333 144.066 64C143.8 63.1 143.5 62.1 143.166 61C142.833 59.9 142.483 58.7 142.116 57.4C141.783 56.0667 141.433 54.6667 141.066 53.2C140.766 54.6333 140.45 56.0667 140.116 57.5C139.783 58.9 139.45 60.2333 139.116 61.5C138.816 62.7333 138.533 63.8333 138.266 64.8C137.766 65.2333 137.016 65.6167 136.016 65.95C135.016 66.25 133.916 66.4 132.716 66.4C131.25 66.4 129.9 66.1833 128.666 65.75C127.433 65.3167 126.633 64.7333 126.266 64C125.933 63.2667 125.55 62.15 125.116 60.65C124.683 59.1167 124.233 57.3667 123.766 55.4C123.3 53.4 122.85 51.3333 122.416 49.2C122.016 47.0333 121.65 44.9167 121.316 42.85C120.983 40.7833 120.733 38.9167 120.566 37.25C121.033 36.8167 121.683 36.4167 122.516 36.05C123.35 35.6833 124.25 35.5 125.216 35.5C126.483 35.5 127.516 35.7833 128.316 36.35C129.15 36.8833 129.666 37.8 129.866 39.1C130.433 42.5 130.883 45.3333 131.216 47.6C131.55 49.8667 131.816 51.7167 132.016 53.15C132.216 54.5833 132.366 55.7167 132.466 56.55C132.6 57.35 132.716 57.9833 132.816 58.45H133.066C133.366 57.1167 133.65 55.8833 133.916 54.75C134.183 53.6167 134.45 52.4833 134.716 51.35C135.016 50.2167 135.316 48.9833 135.616 47.65C135.916 46.3167 136.233 44.8 136.566 43.1ZM195.04 50.95C195.04 48.95 194.724 47.2833 194.09 45.95C193.457 44.6167 192.557 43.6167 191.39 42.95C190.257 42.25 188.907 41.9 187.34 41.9C186.874 41.9 186.39 41.9167 185.89 41.95C185.424 41.9833 184.94 42.0333 184.44 42.1V59.5C184.807 59.5667 185.257 59.6333 185.79 59.7C186.357 59.7333 186.857 59.75 187.29 59.75C189.557 59.75 191.407 59.0167 192.84 57.55C194.307 56.0833 195.04 53.8833 195.04 50.95ZM204.04 50.8C204.04 54.3667 203.34 57.3333 201.94 59.7C200.54 62.0667 198.574 63.85 196.04 65.05C193.54 66.2167 190.607 66.8 187.24 66.8C186.107 66.8 184.69 66.7167 182.99 66.55C181.324 66.3833 179.824 66.05 178.49 65.55C176.657 64.85 175.74 63.6333 175.74 61.9V38.55C175.74 37.85 175.94 37.3167 176.34 36.95C176.74 36.55 177.257 36.2333 177.89 36C179.324 35.5333 180.84 35.2333 182.44 35.1C184.04 34.9333 185.474 34.85 186.74 34.85C190.207 34.85 193.224 35.4333 195.79 36.6C198.39 37.7333 200.407 39.4833 201.84 41.85C203.307 44.1833 204.04 47.1667 204.04 50.8ZM209.041 43.9H217.541V65.7C217.174 65.8 216.641 65.9 215.941 66C215.241 66.1 214.491 66.15 213.691 66.15C212.258 66.15 211.124 65.7333 210.291 64.9C209.458 64.0667 209.041 62.9333 209.041 61.5V43.9ZM217.541 57.95H209.041V40.35C209.041 38.9167 209.458 37.7833 210.291 36.95C211.124 36.1167 212.258 35.7 213.691 35.7C214.491 35.7 215.241 35.75 215.941 35.85C216.641 35.95 217.174 36.05 217.541 36.15V57.95ZM213.691 54V47.2H228.791C229.024 47.5667 229.224 48.0333 229.391 48.6C229.591 49.1667 229.691 49.8 229.691 50.5C229.691 51.7333 229.424 52.6333 228.891 53.2C228.358 53.7333 227.624 54 226.691 54H213.691ZM213.691 66.15V59.25H230.391C230.624 59.6167 230.824 60.1 230.991 60.7C231.191 61.3 231.291 61.95 231.291 62.65C231.291 63.8833 231.024 64.7833 230.491 65.35C229.958 65.8833 229.224 66.15 228.291 66.15H213.691ZM213.691 42.55V35.7H230.191C230.424 36.0667 230.624 36.5333 230.791 37.1C230.991 37.6667 231.091 38.3 231.091 39C231.091 40.2333 230.824 41.1333 230.291 41.7C229.758 42.2667 229.024 42.55 228.091 42.55H213.691ZM257.579 58.55C257.146 58.8833 256.579 59.1667 255.879 59.4C255.212 59.6333 254.429 59.75 253.529 59.75C252.329 59.75 251.329 59.6 250.529 59.3C249.762 59 249.262 58.4833 249.029 57.75C248.096 54.7833 247.329 52.4 246.729 50.6C246.129 48.8 245.662 47.2167 245.329 45.85H245.079C244.979 47.8167 244.896 49.6167 244.829 51.25C244.796 52.85 244.762 54.4167 244.729 55.95C244.729 57.45 244.696 59 244.629 60.6C244.596 62.1667 244.529 63.9 244.429 65.8C243.996 65.9333 243.429 66.0667 242.729 66.2C242.029 66.3333 241.329 66.4 240.629 66.4C239.196 66.4 238.062 66.1667 237.229 65.7C236.396 65.2333 235.979 64.3833 235.979 63.15C235.979 62.3167 236.012 61.1833 236.079 59.75C236.146 58.2833 236.229 56.65 236.329 54.85C236.462 53.0167 236.579 51.1 236.679 49.1C236.812 47.1 236.946 45.1167 237.079 43.15C237.212 41.1833 237.329 39.35 237.429 37.65C237.696 37.2167 238.279 36.75 239.179 36.25C240.079 35.75 241.346 35.5 242.979 35.5C244.746 35.5 246.129 35.7833 247.129 36.35C248.162 36.8833 248.896 37.7667 249.329 39C249.729 40.0667 250.162 41.3333 250.629 42.8C251.096 44.2333 251.562 45.7 252.029 47.2C252.496 48.6667 252.912 49.9833 253.279 51.15H253.529C254.329 48.3833 255.129 45.6833 255.929 43.05C256.762 40.3833 257.496 38.1833 258.129 36.45C258.629 36.1833 259.279 35.9667 260.079 35.8C260.879 35.6 261.746 35.5 262.679 35.5C264.312 35.5 265.646 35.75 266.679 36.25C267.712 36.7167 268.312 37.4 268.479 38.3C268.612 38.9667 268.746 39.9833 268.879 41.35C269.046 42.7167 269.212 44.2833 269.379 46.05C269.546 47.8167 269.712 49.6667 269.879 51.6C270.046 53.5 270.196 55.35 270.329 57.15C270.496 58.95 270.629 60.5833 270.729 62.05C270.829 63.4833 270.896 64.6167 270.929 65.45C270.362 65.7833 269.762 66.0167 269.129 66.15C268.529 66.3167 267.746 66.4 266.779 66.4C265.546 66.4 264.479 66.1833 263.579 65.75C262.712 65.3167 262.246 64.4667 262.179 63.2C262.046 60.7667 261.946 58.5 261.879 56.4C261.812 54.3 261.762 52.3833 261.729 50.65C261.696 48.9167 261.646 47.4 261.579 46.1H261.329C260.996 47.4 260.512 49.0333 259.879 51C259.246 52.9667 258.479 55.4833 257.579 58.55ZM306.379 50.8C306.379 54.2667 305.679 57.2 304.279 59.6C302.912 62 301.029 63.8167 298.629 65.05C296.262 66.2833 293.562 66.9 290.529 66.9C287.495 66.9 284.779 66.2833 282.379 65.05C280.012 63.8167 278.145 62 276.779 59.6C275.412 57.2 274.729 54.2667 274.729 50.8C274.729 47.3333 275.429 44.4167 276.829 42.05C278.229 39.65 280.112 37.8333 282.479 36.6C284.879 35.3667 287.562 34.75 290.529 34.75C293.495 34.75 296.179 35.3667 298.579 36.6C300.979 37.8333 302.879 39.65 304.279 42.05C305.679 44.4167 306.379 47.3333 306.379 50.8ZM297.379 50.8C297.379 47.8333 296.762 45.6 295.529 44.1C294.295 42.5667 292.629 41.8 290.529 41.8C288.495 41.8 286.845 42.55 285.579 44.05C284.345 45.55 283.729 47.8 283.729 50.8C283.729 53.8333 284.345 56.1 285.579 57.6C286.845 59.1 288.512 59.85 290.579 59.85C292.645 59.85 294.295 59.1 295.529 57.6C296.762 56.1 297.379 53.8333 297.379 50.8Z" fill="white"/>
</g>
<defs>
<filter id="filter0_i_9_7" x="0" y="4" width="356" height="122" filterUnits="userSpaceOnUse" color-interpolation-filters="sRGB">
<feFlood flood-opacity="0" result="BackgroundImageFix"/>
<feBlend mode="normal" in="SourceGraphic" in2="BackgroundImageFix" result="shape"/>
<feColorMatrix in="SourceAlpha" type="matrix" values="0 0 0 0 0 0 0 0 0 0 0 0 0 0 0 0 0 0 127 0" result="hardAlpha"/>
<feOffset dx="2" dy="16"/>
<feGaussianBlur stdDeviation="2"/>
<feComposite in2="hardAlpha" operator="arithmetic" k2="-1" k3="1"/>
<feColorMatrix type="matrix" values="0 0 0 0 0.972549 0 0 0 0 0.984314 0 0 0 0 0.67451 0 0 0 0.1 0"/>
<feBlend mode="normal" in2="shape" result="effect1_innerShadow_9_7"/>
</filter>
<filter id="filter1_i_9_7" x="7" y="0" width="342" height="108" filterUnits="userSpaceOnUse" color-interpolation-filters="sRGB">
<feFlood flood-opacity="0" result="BackgroundImageFix"/>
<feBlend mode="normal" in="SourceGraphic" in2="BackgroundImageFix" result="shape"/>
<feColorMatrix in="SourceAlpha" type="matrix" values="0 0 0 0 0 0 0 0 0 0 0 0 0 0 0 0 0 0 127 0" result="hardAlpha"/>
<feOffset dx="2" dy="16"/>
<feGaussianBlur stdDeviation="2"/>
<feComposite in2="hardAlpha" operator="arithmetic" k2="-1" k3="1"/>
<feColorMatrix type="matrix" values="0 0 0 0 0.972549 0 0 0 0 0.984314 0 0 0 0 0.67451 0 0 0 0.1 0"/>
<feBlend mode="normal" in2="shape" result="effect1_innerShadow_9_7"/>
</filter>
<linearGradient id="paint0_linear_9_7" x1="347" y1="63" x2="7" y2="63" gradientUnits="userSpaceOnUse">
<stop stop-color="#CC3520"/>
<stop offset="0.5" stop-color="#E97232"/>
<stop offset="1" stop-color="#CC3520"/>
</linearGradient>
<linearGradient id="paint1_linear_9_7" x1="177" y1="0" x2="177" y2="104" gradientUnits="userSpaceOnUse">
<stop stop-color="#F9E065"/>
<stop offset="0.3" stop-color="#F7C22E"/>
<stop offset="1" stop-color="#EE7723"/>
</linearGradient>
<linearGradient id="paint2_linear_9_7" x1="7" y1="52" x2="347" y2="52" gradientUnits="userSpaceOnUse">
<stop stop-color="#FFAD4C"/>
<stop offset="1" stop-color="#F9B237"/>
</linearGradient>
</defs>
</svg>
