<svg width="340" height="104" viewBox="0 0 340 104" fill="none" xmlns="http://www.w3.org/2000/svg">
<g filter="url(#filter0_i_97_170)">
<rect width="340" height="104" rx="52" fill="url(#paint0_linear_97_170)"/>
<rect x="3.5" y="3.5" width="333" height="97" rx="48.5" stroke="url(#paint1_linear_97_170)" stroke-width="7"/>
<path d="M59.4 65C58.9333 65.4 58.2 65.75 57.2 66.05C56.2333 66.35 55.1667 66.5 54 66.5C52.6333 66.5 51.4333 66.3 50.4 65.9C49.4 65.4667 48.7167 64.8833 48.35 64.15C47.8833 63.2167 47.3333 61.9833 46.7 60.45C46.0667 58.9167 45.3833 57.1833 44.65 55.25C43.9167 53.3167 43.1833 51.3167 42.45 49.25C41.7167 47.1833 41.0333 45.1333 40.4 43.1C39.8 41.0333 39.2833 39.1333 38.85 37.4C39.3167 36.9333 39.9833 36.5167 40.85 36.15C41.75 35.75 42.7 35.55 43.7 35.55C44.9333 35.55 45.9333 35.8167 46.7 36.35C47.5 36.8833 48.0833 37.8333 48.45 39.2C49.35 42.4667 50.25 45.6 51.15 48.6C52.0833 51.5667 53.05 54.6667 54.05 57.9H54.35C54.95 55.8333 55.55 53.6167 56.15 51.25C56.7833 48.8833 57.4167 46.4667 58.05 44C58.6833 41.5 59.2833 39.0333 59.85 36.6C60.45 36.3 61.1 36.05 61.8 35.85C62.5 35.65 63.2667 35.55 64.1 35.55C65.3333 35.55 66.3833 35.8333 67.25 36.4C68.1167 36.9333 68.55 37.8333 68.55 39.1C68.55 39.8 68.3833 40.85 68.05 42.25C67.7167 43.65 67.2667 45.25 66.7 47.05C66.1333 48.8167 65.5 50.65 64.8 52.55C64.1333 54.4167 63.45 56.2 62.75 57.9C62.0833 59.6 61.45 61.0833 60.85 62.35C60.25 63.6167 59.7667 64.5 59.4 65ZM72.9395 43.9H81.6895V65.95C81.3228 66.05 80.7561 66.15 79.9895 66.25C79.2228 66.35 78.4395 66.4 77.6395 66.4C75.9061 66.4 74.6895 66.1 73.9895 65.5C73.2895 64.8667 72.9395 63.7833 72.9395 62.25V43.9ZM81.6895 55.45H72.9395V35.6C73.3395 35.5333 73.9228 35.45 74.6895 35.35C75.4895 35.2167 76.2561 35.15 76.9895 35.15C78.6561 35.15 79.8561 35.4333 80.5895 36C81.3228 36.5667 81.6895 37.6667 81.6895 39.3V55.45ZM88.1738 43.9H96.6738V65.7C96.3072 65.8 95.7738 65.9 95.0738 66C94.3738 66.1 93.6238 66.15 92.8238 66.15C91.3905 66.15 90.2572 65.7333 89.4238 64.9C88.5905 64.0667 88.1738 62.9333 88.1738 61.5V43.9ZM96.6738 57.95H88.1738V40.35C88.1738 38.9167 88.5905 37.7833 89.4238 36.95C90.2572 36.1167 91.3905 35.7 92.8238 35.7C93.6238 35.7 94.3738 35.75 95.0738 35.85C95.7738 35.95 96.3072 36.05 96.6738 36.15V57.95ZM92.8238 54V47.2H107.924C108.157 47.5667 108.357 48.0333 108.524 48.6C108.724 49.1667 108.824 49.8 108.824 50.5C108.824 51.7333 108.557 52.6333 108.024 53.2C107.49 53.7333 106.757 54 105.824 54H92.8238ZM92.8238 66.15V59.25H109.524C109.757 59.6167 109.957 60.1 110.124 60.7C110.324 61.3 110.424 61.95 110.424 62.65C110.424 63.8833 110.157 64.7833 109.624 65.35C109.09 65.8833 108.357 66.15 107.424 66.15H92.8238ZM92.8238 42.55V35.7H109.324C109.557 36.0667 109.757 36.5333 109.924 37.1C110.124 37.6667 110.224 38.3 110.224 39C110.224 40.2333 109.957 41.1333 109.424 41.7C108.89 42.2667 108.157 42.55 107.224 42.55H92.8238ZM129.566 43.1C129.933 42.9333 130.5 42.75 131.266 42.55C132.066 42.3167 132.866 42.2 133.666 42.2C135.066 42.2 136.233 42.4167 137.166 42.85C138.1 43.25 138.666 43.85 138.866 44.65C139.366 46.4833 139.816 48.15 140.216 49.65C140.616 51.15 141 52.6 141.366 54C141.766 55.4 142.15 56.8833 142.516 58.45H142.766C143.166 55.7167 143.5 53.15 143.766 50.75C144.066 48.3167 144.35 45.95 144.616 43.65C144.883 41.3167 145.15 38.95 145.416 36.55C146.683 35.85 148 35.5 149.366 35.5C150.6 35.5 151.666 35.7667 152.566 36.3C153.466 36.8333 153.916 37.7333 153.916 39C153.916 39.7333 153.833 40.7667 153.666 42.1C153.533 43.4333 153.333 44.95 153.066 46.65C152.833 48.35 152.55 50.1 152.216 51.9C151.883 53.7 151.533 55.45 151.166 57.15C150.8 58.85 150.416 60.3667 150.016 61.7C149.65 63.0333 149.3 64.0667 148.966 64.8C148.466 65.2333 147.65 65.6167 146.516 65.95C145.383 66.25 144.216 66.4 143.016 66.4C141.483 66.4 140.166 66.1833 139.066 65.75C137.966 65.3167 137.3 64.7333 137.066 64C136.8 63.1 136.5 62.1 136.166 61C135.833 59.9 135.483 58.7 135.116 57.4C134.783 56.0667 134.433 54.6667 134.066 53.2C133.766 54.6333 133.45 56.0667 133.116 57.5C132.783 58.9 132.45 60.2333 132.116 61.5C131.816 62.7333 131.533 63.8333 131.266 64.8C130.766 65.2333 130.016 65.6167 129.016 65.95C128.016 66.25 126.916 66.4 125.716 66.4C124.25 66.4 122.9 66.1833 121.666 65.75C120.433 65.3167 119.633 64.7333 119.266 64C118.933 63.2667 118.55 62.15 118.116 60.65C117.683 59.1167 117.233 57.3667 116.766 55.4C116.3 53.4 115.85 51.3333 115.416 49.2C115.016 47.0333 114.65 44.9167 114.316 42.85C113.983 40.7833 113.733 38.9167 113.566 37.25C114.033 36.8167 114.683 36.4167 115.516 36.05C116.35 35.6833 117.25 35.5 118.216 35.5C119.483 35.5 120.516 35.7833 121.316 36.35C122.15 36.8833 122.666 37.8 122.866 39.1C123.433 42.5 123.883 45.3333 124.216 47.6C124.55 49.8667 124.816 51.7167 125.016 53.15C125.216 54.5833 125.366 55.7167 125.466 56.55C125.6 57.35 125.716 57.9833 125.816 58.45H126.066C126.366 57.1167 126.65 55.8833 126.916 54.75C127.183 53.6167 127.45 52.4833 127.716 51.35C128.016 50.2167 128.316 48.9833 128.616 47.65C128.916 46.3167 129.233 44.8 129.566 43.1ZM188.04 50.95C188.04 48.95 187.724 47.2833 187.09 45.95C186.457 44.6167 185.557 43.6167 184.39 42.95C183.257 42.25 181.907 41.9 180.34 41.9C179.874 41.9 179.39 41.9167 178.89 41.95C178.424 41.9833 177.94 42.0333 177.44 42.1V59.5C177.807 59.5667 178.257 59.6333 178.79 59.7C179.357 59.7333 179.857 59.75 180.29 59.75C182.557 59.75 184.407 59.0167 185.84 57.55C187.307 56.0833 188.04 53.8833 188.04 50.95ZM197.04 50.8C197.04 54.3667 196.34 57.3333 194.94 59.7C193.54 62.0667 191.574 63.85 189.04 65.05C186.54 66.2167 183.607 66.8 180.24 66.8C179.107 66.8 177.69 66.7167 175.99 66.55C174.324 66.3833 172.824 66.05 171.49 65.55C169.657 64.85 168.74 63.6333 168.74 61.9V38.55C168.74 37.85 168.94 37.3167 169.34 36.95C169.74 36.55 170.257 36.2333 170.89 36C172.324 35.5333 173.84 35.2333 175.44 35.1C177.04 34.9333 178.474 34.85 179.74 34.85C183.207 34.85 186.224 35.4333 188.79 36.6C191.39 37.7333 193.407 39.4833 194.84 41.85C196.307 44.1833 197.04 47.1667 197.04 50.8ZM202.041 43.9H210.541V65.7C210.174 65.8 209.641 65.9 208.941 66C208.241 66.1 207.491 66.15 206.691 66.15C205.258 66.15 204.124 65.7333 203.291 64.9C202.458 64.0667 202.041 62.9333 202.041 61.5V43.9ZM210.541 57.95H202.041V40.35C202.041 38.9167 202.458 37.7833 203.291 36.95C204.124 36.1167 205.258 35.7 206.691 35.7C207.491 35.7 208.241 35.75 208.941 35.85C209.641 35.95 210.174 36.05 210.541 36.15V57.95ZM206.691 54V47.2H221.791C222.024 47.5667 222.224 48.0333 222.391 48.6C222.591 49.1667 222.691 49.8 222.691 50.5C222.691 51.7333 222.424 52.6333 221.891 53.2C221.358 53.7333 220.624 54 219.691 54H206.691ZM206.691 66.15V59.25H223.391C223.624 59.6167 223.824 60.1 223.991 60.7C224.191 61.3 224.291 61.95 224.291 62.65C224.291 63.8833 224.024 64.7833 223.491 65.35C222.958 65.8833 222.224 66.15 221.291 66.15H206.691ZM206.691 42.55V35.7H223.191C223.424 36.0667 223.624 36.5333 223.791 37.1C223.991 37.6667 224.091 38.3 224.091 39C224.091 40.2333 223.824 41.1333 223.291 41.7C222.758 42.2667 222.024 42.55 221.091 42.55H206.691ZM250.579 58.55C250.146 58.8833 249.579 59.1667 248.879 59.4C248.212 59.6333 247.429 59.75 246.529 59.75C245.329 59.75 244.329 59.6 243.529 59.3C242.762 59 242.262 58.4833 242.029 57.75C241.096 54.7833 240.329 52.4 239.729 50.6C239.129 48.8 238.662 47.2167 238.329 45.85H238.079C237.979 47.8167 237.896 49.6167 237.829 51.25C237.796 52.85 237.762 54.4167 237.729 55.95C237.729 57.45 237.696 59 237.629 60.6C237.596 62.1667 237.529 63.9 237.429 65.8C236.996 65.9333 236.429 66.0667 235.729 66.2C235.029 66.3333 234.329 66.4 233.629 66.4C232.196 66.4 231.062 66.1667 230.229 65.7C229.396 65.2333 228.979 64.3833 228.979 63.15C228.979 62.3167 229.012 61.1833 229.079 59.75C229.146 58.2833 229.229 56.65 229.329 54.85C229.462 53.0167 229.579 51.1 229.679 49.1C229.812 47.1 229.946 45.1167 230.079 43.15C230.212 41.1833 230.329 39.35 230.429 37.65C230.696 37.2167 231.279 36.75 232.179 36.25C233.079 35.75 234.346 35.5 235.979 35.5C237.746 35.5 239.129 35.7833 240.129 36.35C241.162 36.8833 241.896 37.7667 242.329 39C242.729 40.0667 243.162 41.3333 243.629 42.8C244.096 44.2333 244.562 45.7 245.029 47.2C245.496 48.6667 245.912 49.9833 246.279 51.15H246.529C247.329 48.3833 248.129 45.6833 248.929 43.05C249.762 40.3833 250.496 38.1833 251.129 36.45C251.629 36.1833 252.279 35.9667 253.079 35.8C253.879 35.6 254.746 35.5 255.679 35.5C257.312 35.5 258.646 35.75 259.679 36.25C260.712 36.7167 261.312 37.4 261.479 38.3C261.612 38.9667 261.746 39.9833 261.879 41.35C262.046 42.7167 262.212 44.2833 262.379 46.05C262.546 47.8167 262.712 49.6667 262.879 51.6C263.046 53.5 263.196 55.35 263.329 57.15C263.496 58.95 263.629 60.5833 263.729 62.05C263.829 63.4833 263.896 64.6167 263.929 65.45C263.362 65.7833 262.762 66.0167 262.129 66.15C261.529 66.3167 260.746 66.4 259.779 66.4C258.546 66.4 257.479 66.1833 256.579 65.75C255.712 65.3167 255.246 64.4667 255.179 63.2C255.046 60.7667 254.946 58.5 254.879 56.4C254.812 54.3 254.762 52.3833 254.729 50.65C254.696 48.9167 254.646 47.4 254.579 46.1H254.329C253.996 47.4 253.512 49.0333 252.879 51C252.246 52.9667 251.479 55.4833 250.579 58.55ZM299.379 50.8C299.379 54.2667 298.679 57.2 297.279 59.6C295.912 62 294.029 63.8167 291.629 65.05C289.262 66.2833 286.562 66.9 283.529 66.9C280.495 66.9 277.779 66.2833 275.379 65.05C273.012 63.8167 271.145 62 269.779 59.6C268.412 57.2 267.729 54.2667 267.729 50.8C267.729 47.3333 268.429 44.4167 269.829 42.05C271.229 39.65 273.112 37.8333 275.479 36.6C277.879 35.3667 280.562 34.75 283.529 34.75C286.495 34.75 289.179 35.3667 291.579 36.6C293.979 37.8333 295.879 39.65 297.279 42.05C298.679 44.4167 299.379 47.3333 299.379 50.8ZM290.379 50.8C290.379 47.8333 289.762 45.6 288.529 44.1C287.295 42.5667 285.629 41.8 283.529 41.8C281.495 41.8 279.845 42.55 278.579 44.05C277.345 45.55 276.729 47.8 276.729 50.8C276.729 53.8333 277.345 56.1 278.579 57.6C279.845 59.1 281.512 59.85 283.579 59.85C285.645 59.85 287.295 59.1 288.529 57.6C289.762 56.1 290.379 53.8333 290.379 50.8Z" fill="white"/>
</g>
<defs>
<filter id="filter0_i_97_170" x="0" y="0" width="342" height="108" filterUnits="userSpaceOnUse" color-interpolation-filters="sRGB">
<feFlood flood-opacity="0" result="BackgroundImageFix"/>
<feBlend mode="normal" in="SourceGraphic" in2="BackgroundImageFix" result="shape"/>
<feColorMatrix in="SourceAlpha" type="matrix" values="0 0 0 0 0 0 0 0 0 0 0 0 0 0 0 0 0 0 127 0" result="hardAlpha"/>
<feOffset dx="2" dy="16"/>
<feGaussianBlur stdDeviation="2"/>
<feComposite in2="hardAlpha" operator="arithmetic" k2="-1" k3="1"/>
<feColorMatrix type="matrix" values="0 0 0 0 0.972549 0 0 0 0 0.984314 0 0 0 0 0.67451 0 0 0 0.1 0"/>
<feBlend mode="normal" in2="shape" result="effect1_innerShadow_97_170"/>
</filter>
<linearGradient id="paint0_linear_97_170" x1="170" y1="0" x2="170" y2="104" gradientUnits="userSpaceOnUse">
<stop stop-color="#F9E065"/>
<stop offset="0.3" stop-color="#F7C22E"/>
<stop offset="1" stop-color="#EE7723"/>
</linearGradient>
<linearGradient id="paint1_linear_97_170" x1="0" y1="52" x2="340" y2="52" gradientUnits="userSpaceOnUse">
<stop stop-color="#FFAD4C"/>
<stop offset="1" stop-color="#F9B237"/>
</linearGradient>
</defs>
</svg>
