<svg width="886" height="376" viewBox="0 0 886 376" fill="none" xmlns="http://www.w3.org/2000/svg">
<g filter="url(#filter0_iiii_2_107)">
<path d="M89 343.5C68 359 40 366 40 366C40 366 92 389 131.5 361.5C171 334 167.5 305.5 167.5 305.5L111.5 296.5C111.5 296.5 110 328 89 343.5Z" fill="white"/>
<path d="M382 91.5C382 133.197 342.601 167 294 167C245.399 167 206 133.197 206 91.5C206 49.8025 245.399 16 294 16C342.601 16 382 49.8025 382 91.5Z" fill="white"/>
<path d="M600 75.5C600 117.197 543.14 151 473 151C402.86 151 346 117.197 346 75.5C346 33.8025 402.86 0 473 0C543.14 0 600 33.8025 600 75.5Z" fill="white"/>
<path d="M725 107.5C725 149.197 687.616 183 641.5 183C595.384 183 558 149.197 558 107.5C558 65.8025 595.384 32 641.5 32C687.616 32 725 65.8025 725 107.5Z" fill="white"/>
<path d="M886 178C886 256.977 821.081 321 741 321C660.919 321 596 256.977 596 178C596 99.0233 660.919 35 741 35C821.081 35 886 99.0233 886 178Z" fill="white"/>
<path d="M799 205C799 283.977 748.408 348 686 348C623.592 348 573 283.977 573 205C573 126.023 623.592 62 686 62C748.408 62 799 126.023 799 205Z" fill="white"/>
<path d="M692 219C692 297.977 638.498 362 572.5 362C506.502 362 453 297.977 453 219C453 140.023 506.502 76 572.5 76C638.498 76 692 140.023 692 219Z" fill="white"/>
<path d="M596 208C596 286.977 542.498 351 476.5 351C410.502 351 357 286.977 357 208C357 129.023 410.502 65 476.5 65C542.498 65 596 129.023 596 208Z" fill="white"/>
<path d="M502 220C502 298.977 446.036 363 377 363C307.964 363 252 298.977 252 220C252 141.023 307.964 77 377 77C446.036 77 502 141.023 502 220Z" fill="white"/>
<path d="M367 208C367 286.977 317.975 351 257.5 351C197.025 351 148 286.977 148 208C148 129.023 197.025 65 257.5 65C317.975 65 367 129.023 367 208Z" fill="white"/>
<path d="M311 170.5C311 252.514 241.38 319 155.5 319C69.6197 319 0 252.514 0 170.5C0 88.4857 69.6197 22 155.5 22C241.38 22 311 88.4857 311 170.5Z" fill="white"/>
</g>
<path d="M129.875 132.05V121.55H154.85C155.2 122.1 155.5 122.825 155.75 123.725C156.05 124.625 156.2 125.6 156.2 126.65C156.2 128.5 155.775 129.875 154.925 130.775C154.125 131.625 153.025 132.05 151.625 132.05H129.875ZM143.675 121.55V132.05H118.7C118.35 131.5 118.025 130.775 117.725 129.875C117.475 128.975 117.35 128 117.35 126.95C117.35 125.05 117.75 123.675 118.55 122.825C119.4 121.975 120.525 121.55 121.925 121.55H143.675ZM130.025 130.025H143.15V166.925C142.6 167.075 141.75 167.225 140.6 167.375C139.45 167.525 138.275 167.6 137.075 167.6C134.475 167.6 132.65 167.15 131.6 166.25C130.55 165.3 130.025 163.675 130.025 161.375V130.025ZM180.922 132.575H180.472C180.022 133.975 179.522 135.5 178.972 137.15C178.422 138.8 177.847 140.55 177.247 142.4C176.647 144.2 176.072 146.075 175.522 148.025L173.872 156.5C173.572 157.5 173.297 158.475 173.047 159.425C172.847 160.375 172.622 161.275 172.372 162.125C172.172 162.975 171.972 163.8 171.772 164.6C171.572 165.4 171.372 166.175 171.172 166.925C170.522 167.125 169.797 167.325 168.997 167.525C168.197 167.725 167.247 167.825 166.147 167.825C163.647 167.825 161.772 167.4 160.522 166.55C159.272 165.65 158.647 164.425 158.647 162.875C158.647 162.175 158.747 161.475 158.947 160.775C159.147 160.075 159.372 159.25 159.622 158.3C160.022 156.7 160.622 154.65 161.422 152.15C162.222 149.6 163.097 146.875 164.047 143.975C165.047 141.025 166.022 138.15 166.972 135.35C167.972 132.55 168.872 130.05 169.672 127.85C170.472 125.6 171.072 123.95 171.472 122.9C172.322 122.4 173.622 121.925 175.372 121.475C177.122 121.025 178.847 120.8 180.547 120.8C183.047 120.8 185.272 121.175 187.222 121.925C189.172 122.625 190.397 123.775 190.897 125.375C191.797 127.925 192.747 130.925 193.747 134.375C194.797 137.775 195.847 141.35 196.897 145.1C197.997 148.8 199.047 152.425 200.047 155.975C201.047 159.475 201.922 162.625 202.672 165.425C202.072 166.075 201.172 166.625 199.972 167.075C198.772 167.525 197.347 167.75 195.697 167.75C193.247 167.75 191.547 167.35 190.597 166.55C189.647 165.7 188.947 164.425 188.497 162.725L186.622 155.525L185.122 147.8C184.622 145.85 184.122 143.975 183.622 142.175C183.122 140.375 182.647 138.675 182.197 137.075C181.747 135.425 181.322 133.925 180.922 132.575ZM168.247 157.55L173.422 147.425H189.922L191.497 157.55H168.247ZM211.068 152.9V125.825C211.068 124.775 211.368 123.975 211.968 123.425C212.568 122.825 213.343 122.35 214.293 122C215.993 121.4 218.018 120.975 220.368 120.725C222.718 120.425 224.818 120.275 226.668 120.275C233.518 120.275 238.768 121.75 242.418 124.7C246.118 127.65 247.968 131.65 247.968 136.7C247.968 139.95 247.168 142.8 245.568 145.25C243.968 147.65 241.718 149.525 238.818 150.875C235.918 152.225 232.493 152.9 228.543 152.9H211.068ZM218.118 167.6C215.518 167.6 213.693 167.15 212.643 166.25C211.593 165.3 211.068 163.675 211.068 161.375V147.2H224.193V166.925C223.643 167.075 222.793 167.225 221.643 167.375C220.493 167.525 219.318 167.6 218.118 167.6ZM224.118 142.625H227.718C229.768 142.625 231.418 142.125 232.668 141.125C233.968 140.075 234.618 138.6 234.618 136.7C234.618 134.8 234.018 133.35 232.818 132.35C231.668 131.3 229.968 130.775 227.718 130.775C226.918 130.775 226.243 130.8 225.693 130.85C225.193 130.85 224.668 130.9 224.118 131V142.625ZM274.162 133.85H287.287V166.925C286.737 167.075 285.887 167.225 284.737 167.375C283.587 167.525 282.412 167.6 281.212 167.6C278.612 167.6 276.787 167.15 275.737 166.25C274.687 165.3 274.162 163.675 274.162 161.375V133.85ZM287.287 151.175H274.162V121.4C274.762 121.3 275.637 121.175 276.787 121.025C277.987 120.825 279.137 120.725 280.237 120.725C282.737 120.725 284.537 121.15 285.637 122C286.737 122.85 287.287 124.5 287.287 126.95V151.175ZM299.264 137H311.339C311.539 139.3 311.664 141.5 311.714 143.6C311.814 145.7 311.864 147.7 311.864 149.6C311.864 151.45 311.864 153.275 311.864 155.075V167C311.364 167.1 310.539 167.225 309.389 167.375C308.289 167.525 307.164 167.6 306.014 167.6C303.514 167.6 301.764 167.175 300.764 166.325C299.764 165.425 299.264 163.85 299.264 161.6V137ZM340.439 151.25H328.364C328.064 147.75 327.889 144.525 327.839 141.575C327.839 138.625 327.839 135.825 327.839 133.175V121.325C328.389 121.225 329.214 121.1 330.314 120.95C331.414 120.8 332.539 120.725 333.689 120.725C336.189 120.725 337.939 121.175 338.939 122.075C339.939 122.925 340.439 124.475 340.439 126.725V151.25ZM340.439 147.2V137.75V165.425C339.739 166.075 338.714 166.6 337.364 167C336.064 167.4 334.489 167.6 332.639 167.6C330.789 167.6 329.039 167.325 327.389 166.775C325.739 166.225 324.389 164.9 323.339 162.8L315.914 147.65C315.414 146.6 314.939 145.625 314.489 144.725C314.089 143.775 313.689 142.8 313.289 141.8C312.889 140.8 312.439 139.7 311.939 138.5L299.264 141.275V123.875C299.964 122.875 301.039 122.125 302.489 121.625C303.939 121.125 305.489 120.875 307.139 120.875C308.989 120.875 310.739 121.175 312.389 121.775C314.089 122.325 315.439 123.625 316.439 125.675L323.939 140.825C324.439 141.825 324.889 142.8 325.289 143.75C325.739 144.7 326.164 145.675 326.564 146.675C327.014 147.675 327.464 148.775 327.914 149.975L340.439 147.2ZM361.417 132.05V121.55H386.392C386.742 122.1 387.042 122.825 387.292 123.725C387.592 124.625 387.742 125.6 387.742 126.65C387.742 128.5 387.317 129.875 386.467 130.775C385.667 131.625 384.567 132.05 383.167 132.05H361.417ZM375.217 121.55V132.05H350.242C349.892 131.5 349.567 130.775 349.267 129.875C349.017 128.975 348.892 128 348.892 126.95C348.892 125.05 349.292 123.675 350.092 122.825C350.942 121.975 352.067 121.55 353.467 121.55H375.217ZM361.567 130.025H374.692V166.925C374.142 167.075 373.292 167.225 372.142 167.375C370.992 167.525 369.817 167.6 368.617 167.6C366.017 167.6 364.192 167.15 363.142 166.25C362.092 165.3 361.567 163.675 361.567 161.375V130.025ZM439.589 144.2C439.589 149.4 438.539 153.8 436.439 157.4C434.389 161 431.564 163.725 427.964 165.575C424.414 167.425 420.364 168.35 415.814 168.35C411.264 168.35 407.189 167.425 403.589 165.575C400.039 163.725 397.239 161 395.189 157.4C393.139 153.8 392.114 149.4 392.114 144.2C392.114 139 393.164 134.625 395.264 131.075C397.364 127.475 400.189 124.75 403.739 122.9C407.339 121.05 411.364 120.125 415.814 120.125C420.264 120.125 424.289 121.05 427.889 122.9C431.489 124.75 434.339 127.475 436.439 131.075C438.539 134.625 439.589 139 439.589 144.2ZM426.089 144.2C426.089 139.75 425.164 136.4 423.314 134.15C421.464 131.85 418.964 130.7 415.814 130.7C412.764 130.7 410.289 131.825 408.389 134.075C406.539 136.325 405.614 139.7 405.614 144.2C405.614 148.75 406.539 152.15 408.389 154.4C410.289 156.65 412.789 157.775 415.889 157.775C418.989 157.775 421.464 156.65 423.314 154.4C425.164 152.15 426.089 148.75 426.089 144.2ZM480.563 157.7C483.013 157.7 484.738 157.3 485.738 156.5C486.738 155.7 487.238 154.8 487.238 153.8C487.238 152.8 486.838 152.025 486.038 151.475C485.238 150.875 484.113 150.325 482.663 149.825L479.513 148.775C476.613 147.775 474.038 146.725 471.788 145.625C469.588 144.475 467.863 143 466.613 141.2C465.363 139.4 464.738 137.05 464.738 134.15C464.738 129.9 466.363 126.5 469.613 123.95C472.913 121.4 477.513 120.125 483.413 120.125C486.313 120.125 488.888 120.4 491.138 120.95C493.388 121.5 495.163 122.35 496.463 123.5C497.763 124.6 498.413 126.025 498.413 127.775C498.413 129.025 498.113 130.125 497.513 131.075C496.913 132.025 496.188 132.825 495.338 133.475C494.238 132.775 492.763 132.175 490.913 131.675C489.063 131.125 487.038 130.85 484.838 130.85C482.588 130.85 480.938 131.175 479.888 131.825C478.838 132.425 478.313 133.2 478.313 134.15C478.313 134.9 478.638 135.525 479.288 136.025C479.988 136.475 480.963 136.9 482.213 137.3L486.188 138.575C490.938 140.075 494.563 142.025 497.063 144.425C499.563 146.775 500.813 149.95 500.813 153.95C500.813 158.2 499.113 161.675 495.713 164.375C492.363 167.025 487.463 168.35 481.013 168.35C477.963 168.35 475.213 168.025 472.763 167.375C470.313 166.725 468.363 165.75 466.913 164.45C465.463 163.15 464.738 161.575 464.738 159.725C464.738 158.275 465.163 157.05 466.013 156.05C466.863 155 467.788 154.2 468.788 153.65C470.188 154.75 471.888 155.7 473.888 156.5C475.938 157.3 478.163 157.7 480.563 157.7ZM530.197 168.35C525.997 168.35 522.372 167.6 519.322 166.1C516.322 164.6 513.997 162.5 512.347 159.8C510.747 157.1 509.947 153.95 509.947 150.35V145.775H523.072V150.125C523.072 152.475 523.722 154.35 525.022 155.75C526.372 157.1 528.097 157.775 530.197 157.775C532.297 157.775 533.997 157.1 535.297 155.75C536.647 154.35 537.322 152.475 537.322 150.125V145.775H550.447V150.35C550.447 153.95 549.622 157.1 547.972 159.8C546.372 162.5 544.047 164.6 540.997 166.1C537.997 167.6 534.397 168.35 530.197 168.35ZM523.072 147.8H509.947V121.4C510.547 121.3 511.422 121.175 512.572 121.025C513.772 120.825 514.922 120.725 516.022 120.725C518.522 120.725 520.322 121.15 521.422 122C522.522 122.85 523.072 124.5 523.072 126.95V147.8ZM550.447 147.95H537.322V121.4C537.922 121.3 538.797 121.175 539.947 121.025C541.147 120.825 542.297 120.725 543.397 120.725C545.897 120.725 547.697 121.15 548.797 122C549.897 122.85 550.447 124.5 550.447 126.95V147.95ZM597.927 128.15C597.927 129.4 597.602 130.525 596.952 131.525C596.302 132.475 595.552 133.225 594.702 133.775C593.452 132.925 592.077 132.2 590.577 131.6C589.077 131 587.352 130.7 585.402 130.7C582.852 130.7 580.677 131.25 578.877 132.35C577.127 133.4 575.777 134.95 574.827 137C573.927 139 573.477 141.425 573.477 144.275C573.477 148.675 574.577 152.025 576.777 154.325C579.027 156.625 582.127 157.775 586.077 157.775C588.127 157.775 589.852 157.5 591.252 156.95C592.702 156.4 594.077 155.775 595.377 155.075C596.227 155.725 596.877 156.55 597.327 157.55C597.827 158.55 598.077 159.7 598.077 161C598.077 162.15 597.777 163.2 597.177 164.15C596.577 165.1 595.552 165.9 594.102 166.55C593.202 166.95 591.927 167.35 590.277 167.75C588.627 168.15 586.627 168.35 584.277 168.35C579.777 168.35 575.677 167.5 571.977 165.8C568.327 164.1 565.402 161.475 563.202 157.925C561.052 154.375 559.977 149.825 559.977 144.275C559.977 139.075 561.027 134.7 563.127 131.15C565.227 127.55 568.052 124.825 571.602 122.975C575.202 121.075 579.152 120.125 583.452 120.125C586.502 120.125 589.102 120.475 591.252 121.175C593.402 121.875 595.052 122.825 596.202 124.025C597.352 125.225 597.927 126.6 597.927 128.15ZM642.291 128.15C642.291 129.4 641.966 130.525 641.316 131.525C640.666 132.475 639.916 133.225 639.066 133.775C637.816 132.925 636.441 132.2 634.941 131.6C633.441 131 631.716 130.7 629.766 130.7C627.216 130.7 625.041 131.25 623.241 132.35C621.491 133.4 620.141 134.95 619.191 137C618.291 139 617.841 141.425 617.841 144.275C617.841 148.675 618.941 152.025 621.141 154.325C623.391 156.625 626.491 157.775 630.441 157.775C632.491 157.775 634.216 157.5 635.616 156.95C637.066 156.4 638.441 155.775 639.741 155.075C640.591 155.725 641.241 156.55 641.691 157.55C642.191 158.55 642.441 159.7 642.441 161C642.441 162.15 642.141 163.2 641.541 164.15C640.941 165.1 639.916 165.9 638.466 166.55C637.566 166.95 636.291 167.35 634.641 167.75C632.991 168.15 630.991 168.35 628.641 168.35C624.141 168.35 620.041 167.5 616.341 165.8C612.691 164.1 609.766 161.475 607.566 157.925C605.416 154.375 604.341 149.825 604.341 144.275C604.341 139.075 605.391 134.7 607.491 131.15C609.591 127.55 612.416 124.825 615.966 122.975C619.566 121.075 623.516 120.125 627.816 120.125C630.866 120.125 633.466 120.475 635.616 121.175C637.766 121.875 639.416 122.825 640.566 124.025C641.716 125.225 642.291 126.6 642.291 128.15ZM651.688 133.85H664.438V166.55C663.888 166.7 663.088 166.85 662.038 167C660.988 167.15 659.863 167.225 658.663 167.225C656.513 167.225 654.813 166.6 653.563 165.35C652.313 164.1 651.688 162.4 651.688 160.25V133.85ZM664.438 154.925H651.688V128.525C651.688 126.375 652.313 124.675 653.563 123.425C654.813 122.175 656.513 121.55 658.663 121.55C659.863 121.55 660.988 121.625 662.038 121.775C663.088 121.925 663.888 122.075 664.438 122.225V154.925ZM658.663 149V138.8H681.313C681.663 139.35 681.963 140.05 682.213 140.9C682.513 141.75 682.663 142.7 682.663 143.75C682.663 145.6 682.263 146.95 681.463 147.8C680.663 148.6 679.563 149 678.163 149H658.663ZM658.663 167.225V156.875H683.713C684.063 157.425 684.363 158.15 684.613 159.05C684.913 159.95 685.063 160.925 685.063 161.975C685.063 163.825 684.663 165.175 683.863 166.025C683.063 166.825 681.963 167.225 680.563 167.225H658.663ZM658.663 131.825V121.55H683.413C683.763 122.1 684.063 122.8 684.312 123.65C684.613 124.5 684.763 125.45 684.763 126.5C684.763 128.35 684.363 129.7 683.563 130.55C682.763 131.4 681.663 131.825 680.263 131.825H658.663ZM709.343 157.7C711.793 157.7 713.518 157.3 714.518 156.5C715.518 155.7 716.018 154.8 716.018 153.8C716.018 152.8 715.618 152.025 714.818 151.475C714.018 150.875 712.893 150.325 711.443 149.825L708.293 148.775C705.393 147.775 702.818 146.725 700.568 145.625C698.368 144.475 696.643 143 695.393 141.2C694.143 139.4 693.518 137.05 693.518 134.15C693.518 129.9 695.143 126.5 698.393 123.95C701.693 121.4 706.293 120.125 712.193 120.125C715.093 120.125 717.668 120.4 719.918 120.95C722.168 121.5 723.943 122.35 725.243 123.5C726.543 124.6 727.193 126.025 727.193 127.775C727.193 129.025 726.893 130.125 726.293 131.075C725.693 132.025 724.968 132.825 724.118 133.475C723.018 132.775 721.543 132.175 719.693 131.675C717.843 131.125 715.818 130.85 713.618 130.85C711.368 130.85 709.718 131.175 708.668 131.825C707.618 132.425 707.093 133.2 707.093 134.15C707.093 134.9 707.418 135.525 708.068 136.025C708.768 136.475 709.743 136.9 710.993 137.3L714.968 138.575C719.718 140.075 723.343 142.025 725.843 144.425C728.343 146.775 729.593 149.95 729.593 153.95C729.593 158.2 727.893 161.675 724.493 164.375C721.143 167.025 716.243 168.35 709.793 168.35C706.743 168.35 703.993 168.025 701.543 167.375C699.093 166.725 697.143 165.75 695.693 164.45C694.243 163.15 693.518 161.575 693.518 159.725C693.518 158.275 693.943 157.05 694.793 156.05C695.643 155 696.568 154.2 697.568 153.65C698.968 154.75 700.668 155.7 702.668 156.5C704.718 157.3 706.943 157.7 709.343 157.7ZM752.901 157.7C755.351 157.7 757.076 157.3 758.076 156.5C759.076 155.7 759.576 154.8 759.576 153.8C759.576 152.8 759.176 152.025 758.376 151.475C757.576 150.875 756.451 150.325 755.001 149.825L751.851 148.775C748.951 147.775 746.376 146.725 744.126 145.625C741.926 144.475 740.201 143 738.951 141.2C737.701 139.4 737.076 137.05 737.076 134.15C737.076 129.9 738.701 126.5 741.951 123.95C745.251 121.4 749.851 120.125 755.751 120.125C758.651 120.125 761.226 120.4 763.476 120.95C765.726 121.5 767.501 122.35 768.801 123.5C770.101 124.6 770.751 126.025 770.751 127.775C770.751 129.025 770.451 130.125 769.851 131.075C769.251 132.025 768.526 132.825 767.676 133.475C766.576 132.775 765.101 132.175 763.251 131.675C761.401 131.125 759.376 130.85 757.176 130.85C754.926 130.85 753.276 131.175 752.226 131.825C751.176 132.425 750.651 133.2 750.651 134.15C750.651 134.9 750.976 135.525 751.626 136.025C752.326 136.475 753.301 136.9 754.551 137.3L758.526 138.575C763.276 140.075 766.901 142.025 769.401 144.425C771.901 146.775 773.151 149.95 773.151 153.95C773.151 158.2 771.451 161.675 768.051 164.375C764.701 167.025 759.801 168.35 753.351 168.35C750.301 168.35 747.551 168.025 745.101 167.375C742.651 166.725 740.701 165.75 739.251 164.45C737.801 163.15 737.076 161.575 737.076 159.725C737.076 158.275 737.501 157.05 738.351 156.05C739.201 155 740.126 154.2 741.126 153.65C742.526 154.75 744.226 155.7 746.226 156.5C748.276 157.3 750.501 157.7 752.901 157.7Z" fill="#FE7C3C"/>
<path d="M147.805 209.398C148.311 209.168 149.093 208.915 150.151 208.639C151.255 208.317 152.359 208.156 153.463 208.156C155.395 208.156 157.005 208.455 158.293 209.053C159.581 209.605 160.363 210.433 160.639 211.537C161.329 214.067 161.95 216.367 162.502 218.437C163.054 220.507 163.583 222.508 164.089 224.44C164.641 226.372 165.17 228.419 165.676 230.581H166.021C166.573 226.809 167.033 223.267 167.401 219.955C167.815 216.597 168.206 213.331 168.574 210.157C168.942 206.937 169.31 203.671 169.678 200.359C171.426 199.393 173.243 198.91 175.129 198.91C176.831 198.91 178.303 199.278 179.545 200.014C180.787 200.75 181.408 201.992 181.408 203.74C181.408 204.752 181.293 206.178 181.063 208.018C180.879 209.858 180.603 211.951 180.235 214.297C179.913 216.643 179.522 219.058 179.062 221.542C178.602 224.026 178.119 226.441 177.613 228.787C177.107 231.133 176.578 233.226 176.026 235.066C175.52 236.906 175.037 238.332 174.577 239.344C173.887 239.942 172.76 240.471 171.196 240.931C169.632 241.345 168.022 241.552 166.366 241.552C164.25 241.552 162.433 241.253 160.915 240.655C159.397 240.057 158.477 239.252 158.155 238.24C157.787 236.998 157.373 235.618 156.913 234.1C156.453 232.582 155.97 230.926 155.464 229.132C155.004 227.292 154.521 225.36 154.015 223.336C153.601 225.314 153.164 227.292 152.704 229.27C152.244 231.202 151.784 233.042 151.324 234.79C150.91 236.492 150.519 238.01 150.151 239.344C149.461 239.942 148.426 240.471 147.046 240.931C145.666 241.345 144.148 241.552 142.492 241.552C140.468 241.552 138.605 241.253 136.903 240.655C135.201 240.057 134.097 239.252 133.591 238.24C133.131 237.228 132.602 235.687 132.004 233.617C131.406 231.501 130.785 229.086 130.141 226.372C129.497 223.612 128.876 220.76 128.278 217.816C127.726 214.826 127.22 211.905 126.76 209.053C126.3 206.201 125.955 203.625 125.725 201.325C126.369 200.727 127.266 200.175 128.416 199.669C129.566 199.163 130.808 198.91 132.142 198.91C133.89 198.91 135.316 199.301 136.42 200.083C137.57 200.819 138.283 202.084 138.559 203.878C139.341 208.57 139.962 212.48 140.422 215.608C140.882 218.736 141.25 221.289 141.526 223.267C141.802 225.245 142.009 226.809 142.147 227.959C142.331 229.063 142.492 229.937 142.63 230.581H142.975C143.389 228.741 143.78 227.039 144.148 225.475C144.516 223.911 144.884 222.347 145.252 220.783C145.666 219.219 146.08 217.517 146.494 215.677C146.908 213.837 147.345 211.744 147.805 209.398ZM188.051 210.502H200.126V240.931C199.62 241.069 198.838 241.207 197.78 241.345C196.722 241.483 195.641 241.552 194.537 241.552C192.145 241.552 190.466 241.138 189.5 240.31C188.534 239.436 188.051 237.941 188.051 235.825V210.502ZM200.126 226.441H188.051V199.048C188.603 198.956 189.408 198.841 190.466 198.703C191.57 198.519 192.628 198.427 193.64 198.427C195.94 198.427 197.596 198.818 198.608 199.6C199.62 200.382 200.126 201.9 200.126 204.154V226.441ZM217.355 208.846V199.186H240.332C240.654 199.692 240.93 200.359 241.16 201.187C241.436 202.015 241.574 202.912 241.574 203.878C241.574 205.58 241.183 206.845 240.401 207.673C239.665 208.455 238.653 208.846 237.365 208.846H217.355ZM230.051 199.186V208.846H207.074C206.752 208.34 206.453 207.673 206.177 206.845C205.947 206.017 205.832 205.12 205.832 204.154C205.832 202.406 206.2 201.141 206.936 200.359C207.718 199.577 208.753 199.186 210.041 199.186H230.051ZM217.493 206.983H229.568V240.931C229.062 241.069 228.28 241.207 227.222 241.345C226.164 241.483 225.083 241.552 223.979 241.552C221.587 241.552 219.908 241.138 218.942 240.31C217.976 239.436 217.493 237.941 217.493 235.825V206.983ZM247.416 210.502H259.491V240.931C258.985 241.069 258.203 241.207 257.145 241.345C256.087 241.483 255.006 241.552 253.902 241.552C251.51 241.552 249.831 241.138 248.865 240.31C247.899 239.436 247.416 237.941 247.416 235.825V210.502ZM259.491 226.441H247.416V199.048C247.968 198.956 248.773 198.841 249.831 198.703C250.935 198.519 251.993 198.427 253.005 198.427C255.305 198.427 256.961 198.818 257.973 199.6C258.985 200.382 259.491 201.9 259.491 204.154V226.441ZM272.739 210.502H284.814V240.931C284.308 241.069 283.526 241.207 282.468 241.345C281.41 241.483 280.329 241.552 279.225 241.552C276.833 241.552 275.154 241.138 274.188 240.31C273.222 239.436 272.739 237.941 272.739 235.825V210.502ZM284.814 226.441H272.739V199.048C273.291 198.956 274.096 198.841 275.154 198.703C276.258 198.519 277.316 198.427 278.328 198.427C280.628 198.427 282.284 198.841 283.296 199.669C284.308 200.497 284.814 202.038 284.814 204.292V226.441ZM279.708 224.854H252.591V215.332H279.708V224.854ZM307.589 228.028V203.119C307.589 202.153 307.865 201.417 308.417 200.911C308.969 200.359 309.682 199.922 310.556 199.6C312.12 199.048 313.983 198.657 316.145 198.427C318.307 198.151 320.239 198.013 321.941 198.013C328.243 198.013 333.073 199.37 336.431 202.084C339.835 204.798 341.537 208.478 341.537 213.124C341.537 216.114 340.801 218.736 339.329 220.99C337.857 223.198 335.787 224.923 333.119 226.165C330.451 227.407 327.3 228.028 323.666 228.028H307.589ZM314.075 241.552C311.683 241.552 310.004 241.138 309.038 240.31C308.072 239.436 307.589 237.941 307.589 235.825V222.784H319.664V240.931C319.158 241.069 318.376 241.207 317.318 241.345C316.26 241.483 315.179 241.552 314.075 241.552ZM319.595 218.575H322.907C324.793 218.575 326.311 218.115 327.461 217.195C328.657 216.229 329.255 214.872 329.255 213.124C329.255 211.376 328.703 210.042 327.599 209.122C326.541 208.156 324.977 207.673 322.907 207.673C322.171 207.673 321.55 207.696 321.044 207.742C320.584 207.742 320.101 207.788 319.595 207.88V218.575ZM347.681 210.502H359.756V240.586L354.098 241.207C352.12 241.207 350.556 240.632 349.406 239.482C348.256 238.332 347.681 236.768 347.681 234.79V210.502ZM354.098 241.207V231.478H375.557C375.879 231.984 376.178 232.651 376.454 233.479C376.73 234.307 376.868 235.204 376.868 236.17C376.868 237.872 376.5 239.137 375.764 239.965C375.028 240.793 374.016 241.207 372.728 241.207H354.098ZM359.756 226.441H347.681V199.048C348.233 198.956 349.038 198.841 350.096 198.703C351.2 198.519 352.258 198.427 353.27 198.427C355.57 198.427 357.226 198.818 358.238 199.6C359.25 200.382 359.756 201.9 359.756 204.154V226.441ZM401.326 209.329H400.912C400.498 210.617 400.038 212.02 399.532 213.538C399.026 215.056 398.497 216.666 397.945 218.368C397.393 220.024 396.864 221.749 396.358 223.543L394.84 231.34C394.564 232.26 394.311 233.157 394.081 234.031C393.897 234.905 393.69 235.733 393.46 236.515C393.276 237.297 393.092 238.056 392.908 238.792C392.724 239.528 392.54 240.241 392.356 240.931C391.758 241.115 391.091 241.299 390.355 241.483C389.619 241.667 388.745 241.759 387.733 241.759C385.433 241.759 383.708 241.368 382.558 240.586C381.408 239.758 380.833 238.631 380.833 237.205C380.833 236.561 380.925 235.917 381.109 235.273C381.293 234.629 381.5 233.87 381.73 232.996C382.098 231.524 382.65 229.638 383.386 227.338C384.122 224.992 384.927 222.485 385.801 219.817C386.721 217.103 387.618 214.458 388.492 211.882C389.412 209.306 390.24 207.006 390.976 204.982C391.712 202.912 392.264 201.394 392.632 200.428C393.414 199.968 394.61 199.531 396.22 199.117C397.83 198.703 399.417 198.496 400.981 198.496C403.281 198.496 405.328 198.841 407.122 199.531C408.916 200.175 410.043 201.233 410.503 202.705C411.331 205.051 412.205 207.811 413.125 210.985C414.091 214.113 415.057 217.402 416.023 220.852C417.035 224.256 418.001 227.591 418.921 230.857C419.841 234.077 420.646 236.975 421.336 239.551C420.784 240.149 419.956 240.655 418.852 241.069C417.748 241.483 416.437 241.69 414.919 241.69C412.665 241.69 411.101 241.322 410.227 240.586C409.353 239.804 408.709 238.631 408.295 237.067L406.57 230.443L405.19 223.336C404.73 221.542 404.27 219.817 403.81 218.161C403.35 216.505 402.913 214.941 402.499 213.469C402.085 211.951 401.694 210.571 401.326 209.329ZM389.665 232.306L394.426 222.991H409.606L411.055 232.306H389.665ZM445.419 228.028H434.586C433.436 226.326 432.148 224.371 430.722 222.163C429.296 219.909 427.87 217.586 426.444 215.194C425.064 212.802 423.776 210.502 422.58 208.294C421.384 206.04 420.441 204.039 419.751 202.291C420.349 201.463 421.154 200.704 422.166 200.014C423.224 199.324 424.512 198.979 426.03 198.979C427.824 198.979 429.273 199.347 430.377 200.083C431.527 200.819 432.608 202.199 433.62 204.223C433.62 204.223 433.827 204.637 434.241 205.465C434.655 206.293 435.161 207.305 435.759 208.501C436.357 209.697 436.955 210.916 437.553 212.158C438.151 213.354 438.657 214.366 439.071 215.194C439.485 216.022 439.692 216.436 439.692 216.436H440.106C440.98 214.504 441.739 212.733 442.383 211.123C443.073 209.513 443.74 207.857 444.384 206.155C445.074 204.407 445.856 202.452 446.73 200.29C447.558 199.876 448.478 199.554 449.49 199.324C450.502 199.094 451.468 198.979 452.388 198.979C453.998 198.979 455.355 199.416 456.459 200.29C457.609 201.118 458.184 202.383 458.184 204.085C458.184 204.637 458.023 205.396 457.701 206.362C457.379 207.282 456.758 208.616 455.838 210.364C454.964 212.066 453.676 214.343 451.974 217.195C450.318 220.047 448.133 223.658 445.419 228.028ZM434.034 223.888H445.833V240.931C445.327 241.069 444.545 241.207 443.487 241.345C442.475 241.483 441.44 241.552 440.382 241.552C437.99 241.552 436.334 241.138 435.414 240.31C434.494 239.482 434.034 238.033 434.034 235.963V223.888ZM478.682 209.329H478.268C477.854 210.617 477.394 212.02 476.888 213.538C476.382 215.056 475.853 216.666 475.301 218.368C474.749 220.024 474.22 221.749 473.714 223.543L472.196 231.34C471.92 232.26 471.667 233.157 471.437 234.031C471.253 234.905 471.046 235.733 470.816 236.515C470.632 237.297 470.448 238.056 470.264 238.792C470.08 239.528 469.896 240.241 469.712 240.931C469.114 241.115 468.447 241.299 467.711 241.483C466.975 241.667 466.101 241.759 465.089 241.759C462.789 241.759 461.064 241.368 459.914 240.586C458.764 239.758 458.189 238.631 458.189 237.205C458.189 236.561 458.281 235.917 458.465 235.273C458.649 234.629 458.856 233.87 459.086 232.996C459.454 231.524 460.006 229.638 460.742 227.338C461.478 224.992 462.283 222.485 463.157 219.817C464.077 217.103 464.974 214.458 465.848 211.882C466.768 209.306 467.596 207.006 468.332 204.982C469.068 202.912 469.62 201.394 469.988 200.428C470.77 199.968 471.966 199.531 473.576 199.117C475.186 198.703 476.773 198.496 478.337 198.496C480.637 198.496 482.684 198.841 484.478 199.531C486.272 200.175 487.399 201.233 487.859 202.705C488.687 205.051 489.561 207.811 490.481 210.985C491.447 214.113 492.413 217.402 493.379 220.852C494.391 224.256 495.357 227.591 496.277 230.857C497.197 234.077 498.002 236.975 498.692 239.551C498.14 240.149 497.312 240.655 496.208 241.069C495.104 241.483 493.793 241.69 492.275 241.69C490.021 241.69 488.457 241.322 487.583 240.586C486.709 239.804 486.065 238.631 485.651 237.067L483.926 230.443L482.546 223.336C482.086 221.542 481.626 219.817 481.166 218.161C480.706 216.505 480.269 214.941 479.855 213.469C479.441 211.951 479.05 210.571 478.682 209.329ZM467.021 232.306L471.782 222.991H486.962L488.411 232.306H467.021ZM526.012 215.539V223.957H511.798V215.539H526.012ZM521.734 223.957L522.079 217.471C526.127 217.471 529.485 217.908 532.153 218.782C534.821 219.656 536.822 220.921 538.156 222.577C539.536 224.233 540.226 226.28 540.226 228.718C540.226 233.226 538.524 236.584 535.12 238.792C531.716 241 526.863 242.104 520.561 242.104C519.503 242.104 518.238 242.058 516.766 241.966C515.294 241.874 513.799 241.69 512.281 241.414C510.763 241.184 509.383 240.839 508.141 240.379C505.611 239.413 504.346 237.734 504.346 235.342V203.119C504.346 202.153 504.622 201.417 505.174 200.911C505.726 200.359 506.439 199.922 507.313 199.6C508.877 199.048 510.832 198.657 513.178 198.427C515.57 198.151 517.985 198.013 520.423 198.013C526.265 198.013 530.773 199.025 533.947 201.049C537.167 203.027 538.777 206.063 538.777 210.157C538.777 212.457 538.064 214.389 536.638 215.953C535.258 217.471 533.28 218.621 530.704 219.403C528.128 220.139 525.069 220.507 521.527 220.507L521.113 215.539C523.091 215.539 524.517 215.171 525.391 214.435C526.311 213.699 526.771 212.618 526.771 211.192C526.771 209.95 526.242 208.961 525.184 208.225C524.172 207.489 522.631 207.121 520.561 207.121C519.871 207.121 519.066 207.144 518.146 207.19C517.272 207.236 516.582 207.305 516.076 207.397V232.375C516.72 232.559 517.548 232.697 518.56 232.789C519.618 232.835 520.584 232.858 521.458 232.858C523.298 232.858 524.816 232.49 526.012 231.754C527.254 230.972 527.875 229.776 527.875 228.166C527.875 226.648 527.346 225.567 526.288 224.923C525.276 224.279 523.758 223.957 521.734 223.957ZM547.067 210.502H559.142V240.586L553.484 241.207C551.506 241.207 549.942 240.632 548.792 239.482C547.642 238.332 547.067 236.768 547.067 234.79V210.502ZM553.484 241.207V231.478H574.943C575.265 231.984 575.564 232.651 575.84 233.479C576.116 234.307 576.254 235.204 576.254 236.17C576.254 237.872 575.886 239.137 575.15 239.965C574.414 240.793 573.402 241.207 572.114 241.207H553.484ZM559.142 226.441H547.067V199.048C547.619 198.956 548.424 198.841 549.482 198.703C550.586 198.519 551.644 198.427 552.656 198.427C554.956 198.427 556.612 198.818 557.624 199.6C558.636 200.382 559.142 201.9 559.142 204.154V226.441ZM582.443 210.502H594.173V240.586C593.667 240.724 592.931 240.862 591.965 241C590.999 241.138 589.964 241.207 588.86 241.207C586.882 241.207 585.318 240.632 584.168 239.482C583.018 238.332 582.443 236.768 582.443 234.79V210.502ZM594.173 229.891H582.443V205.603C582.443 203.625 583.018 202.061 584.168 200.911C585.318 199.761 586.882 199.186 588.86 199.186C589.964 199.186 590.999 199.255 591.965 199.393C592.931 199.531 593.667 199.669 594.173 199.807V229.891ZM588.86 224.44V215.056H609.698C610.02 215.562 610.296 216.206 610.526 216.988C610.802 217.77 610.94 218.644 610.94 219.61C610.94 221.312 610.572 222.554 609.836 223.336C609.1 224.072 608.088 224.44 606.8 224.44H588.86ZM588.86 241.207V231.685H611.906C612.228 232.191 612.504 232.858 612.734 233.686C613.01 234.514 613.148 235.411 613.148 236.377C613.148 238.079 612.78 239.321 612.044 240.103C611.308 240.839 610.296 241.207 609.008 241.207H588.86ZM588.86 208.639V199.186H611.63C611.952 199.692 612.228 200.336 612.458 201.118C612.734 201.9 612.872 202.774 612.872 203.74C612.872 205.442 612.504 206.684 611.768 207.466C611.032 208.248 610.02 208.639 608.732 208.639H588.86ZM651.653 209.329H651.239C650.825 210.617 650.365 212.02 649.859 213.538C649.353 215.056 648.824 216.666 648.272 218.368C647.72 220.024 647.191 221.749 646.685 223.543L645.167 231.34C644.891 232.26 644.638 233.157 644.408 234.031C644.224 234.905 644.017 235.733 643.787 236.515C643.603 237.297 643.419 238.056 643.235 238.792C643.051 239.528 642.867 240.241 642.683 240.931C642.085 241.115 641.418 241.299 640.682 241.483C639.946 241.667 639.072 241.759 638.06 241.759C635.76 241.759 634.035 241.368 632.885 240.586C631.735 239.758 631.16 238.631 631.16 237.205C631.16 236.561 631.252 235.917 631.436 235.273C631.62 234.629 631.827 233.87 632.057 232.996C632.425 231.524 632.977 229.638 633.713 227.338C634.449 224.992 635.254 222.485 636.128 219.817C637.048 217.103 637.945 214.458 638.819 211.882C639.739 209.306 640.567 207.006 641.303 204.982C642.039 202.912 642.591 201.394 642.959 200.428C643.741 199.968 644.937 199.531 646.547 199.117C648.157 198.703 649.744 198.496 651.308 198.496C653.608 198.496 655.655 198.841 657.449 199.531C659.243 200.175 660.37 201.233 660.83 202.705C661.658 205.051 662.532 207.811 663.452 210.985C664.418 214.113 665.384 217.402 666.35 220.852C667.362 224.256 668.328 227.591 669.248 230.857C670.168 234.077 670.973 236.975 671.663 239.551C671.111 240.149 670.283 240.655 669.179 241.069C668.075 241.483 666.764 241.69 665.246 241.69C662.992 241.69 661.428 241.322 660.554 240.586C659.68 239.804 659.036 238.631 658.622 237.067L656.897 230.443L655.517 223.336C655.057 221.542 654.597 219.817 654.137 218.161C653.677 216.505 653.24 214.941 652.826 213.469C652.412 211.951 652.021 210.571 651.653 209.329ZM639.992 232.306L644.753 222.991H659.933L661.382 232.306H639.992ZM703.952 220.231C703.952 217.471 703.515 215.171 702.641 213.331C701.767 211.491 700.525 210.111 698.915 209.191C697.351 208.225 695.488 207.742 693.326 207.742C692.682 207.742 692.015 207.765 691.325 207.811C690.681 207.857 690.014 207.926 689.324 208.018V232.03C689.83 232.122 690.451 232.214 691.187 232.306C691.969 232.352 692.659 232.375 693.257 232.375C696.385 232.375 698.938 231.363 700.916 229.339C702.94 227.315 703.952 224.279 703.952 220.231ZM716.372 220.024C716.372 224.946 715.406 229.04 713.474 232.306C711.542 235.572 708.828 238.033 705.332 239.689C701.882 241.299 697.834 242.104 693.188 242.104C691.624 242.104 689.669 241.989 687.323 241.759C685.023 241.529 682.953 241.069 681.113 240.379C678.583 239.413 677.318 237.734 677.318 235.342V203.119C677.318 202.153 677.594 201.417 678.146 200.911C678.698 200.359 679.411 199.922 680.285 199.6C682.263 198.956 684.356 198.542 686.564 198.358C688.772 198.128 690.75 198.013 692.498 198.013C697.282 198.013 701.445 198.818 704.987 200.428C708.575 201.992 711.358 204.407 713.336 207.673C715.36 210.893 716.372 215.01 716.372 220.024ZM736.107 232.444C738.361 232.444 739.948 232.076 740.868 231.34C741.788 230.604 742.248 229.776 742.248 228.856C742.248 227.936 741.88 227.223 741.144 226.717C740.408 226.165 739.373 225.659 738.039 225.199L735.141 224.233C732.473 223.313 730.104 222.347 728.034 221.335C726.01 220.277 724.423 218.92 723.273 217.264C722.123 215.608 721.548 213.446 721.548 210.778C721.548 206.868 723.043 203.74 726.033 201.394C729.069 199.048 733.301 197.875 738.729 197.875C741.397 197.875 743.766 198.128 745.836 198.634C747.906 199.14 749.539 199.922 750.735 200.98C751.931 201.992 752.529 203.303 752.529 204.913C752.529 206.063 752.253 207.075 751.701 207.949C751.149 208.823 750.482 209.559 749.7 210.157C748.688 209.513 747.331 208.961 745.629 208.501C743.927 207.995 742.064 207.742 740.04 207.742C737.97 207.742 736.452 208.041 735.486 208.639C734.52 209.191 734.037 209.904 734.037 210.778C734.037 211.468 734.336 212.043 734.934 212.503C735.578 212.917 736.475 213.308 737.625 213.676L741.282 214.849C745.652 216.229 748.987 218.023 751.287 220.231C753.587 222.393 754.737 225.314 754.737 228.994C754.737 232.904 753.173 236.101 750.045 238.585C746.963 241.023 742.455 242.242 736.521 242.242C733.715 242.242 731.185 241.943 728.931 241.345C726.677 240.747 724.883 239.85 723.549 238.654C722.215 237.458 721.548 236.009 721.548 234.307C721.548 232.973 721.939 231.846 722.721 230.926C723.503 229.96 724.354 229.224 725.274 228.718C726.562 229.73 728.126 230.604 729.966 231.34C731.852 232.076 733.899 232.444 736.107 232.444ZM773.145 202.498C773.145 203.556 773.099 205.005 773.007 206.845C772.961 208.639 772.869 210.64 772.731 212.848C772.639 215.01 772.478 217.172 772.248 219.334C772.018 221.45 771.742 223.359 771.42 225.061C771.052 225.383 770.385 225.636 769.419 225.82C768.499 226.004 767.717 226.096 767.073 226.096C765.785 226.096 764.681 225.889 763.761 225.475C762.841 225.015 762.266 224.21 762.036 223.06C761.852 222.002 761.668 220.484 761.484 218.506C761.3 216.528 761.139 214.343 761.001 211.951C760.863 209.559 760.748 207.213 760.656 204.913C760.61 202.613 760.587 200.589 760.587 198.841C762.565 197.737 764.773 197.185 767.211 197.185C769.097 197.185 770.546 197.622 771.558 198.496C772.616 199.37 773.145 200.704 773.145 202.498ZM760.449 235.756C760.449 233.87 761.047 232.329 762.243 231.133C763.439 229.891 765.049 229.27 767.073 229.27C769.097 229.27 770.707 229.891 771.903 231.133C773.099 232.329 773.697 233.87 773.697 235.756C773.697 237.642 773.099 239.206 771.903 240.448C770.707 241.644 769.097 242.242 767.073 242.242C765.049 242.242 763.439 241.644 762.243 240.448C761.047 239.206 760.449 237.642 760.449 235.756Z" fill="#FE7C3C"/>
<defs>
<filter id="filter0_iiii_2_107" x="-24" y="-24" width="934" height="423.009" filterUnits="userSpaceOnUse" color-interpolation-filters="sRGB">
<feFlood flood-opacity="0" result="BackgroundImageFix"/>
<feBlend mode="normal" in="SourceGraphic" in2="BackgroundImageFix" result="shape"/>
<feColorMatrix in="SourceAlpha" type="matrix" values="0 0 0 0 0 0 0 0 0 0 0 0 0 0 0 0 0 0 127 0" result="hardAlpha"/>
<feOffset dx="24" dy="24"/>
<feGaussianBlur stdDeviation="48"/>
<feComposite in2="hardAlpha" operator="arithmetic" k2="-1" k3="1"/>
<feColorMatrix type="matrix" values="0 0 0 0 0.709804 0 0 0 0 0.705882 0 0 0 0 0.764706 0 0 0 0.5 0"/>
<feBlend mode="normal" in2="shape" result="effect1_innerShadow_2_107"/>
<feColorMatrix in="SourceAlpha" type="matrix" values="0 0 0 0 0 0 0 0 0 0 0 0 0 0 0 0 0 0 127 0" result="hardAlpha"/>
<feOffset dx="-24" dy="-24"/>
<feGaussianBlur stdDeviation="48"/>
<feComposite in2="hardAlpha" operator="arithmetic" k2="-1" k3="1"/>
<feColorMatrix type="matrix" values="0 0 0 0 0.709804 0 0 0 0 0.705882 0 0 0 0 0.764706 0 0 0 1 0"/>
<feBlend mode="normal" in2="effect1_innerShadow_2_107" result="effect2_innerShadow_2_107"/>
<feColorMatrix in="SourceAlpha" type="matrix" values="0 0 0 0 0 0 0 0 0 0 0 0 0 0 0 0 0 0 127 0" result="hardAlpha"/>
<feOffset dy="15"/>
<feGaussianBlur stdDeviation="5"/>
<feComposite in2="hardAlpha" operator="arithmetic" k2="-1" k3="1"/>
<feColorMatrix type="matrix" values="0 0 0 0 1 0 0 0 0 1 0 0 0 0 1 0 0 0 1 0"/>
<feBlend mode="normal" in2="effect2_innerShadow_2_107" result="effect3_innerShadow_2_107"/>
<feColorMatrix in="SourceAlpha" type="matrix" values="0 0 0 0 0 0 0 0 0 0 0 0 0 0 0 0 0 0 127 0" result="hardAlpha"/>
<feOffset dy="-15"/>
<feGaussianBlur stdDeviation="5"/>
<feComposite in2="hardAlpha" operator="arithmetic" k2="-1" k3="1"/>
<feColorMatrix type="matrix" values="0 0 0 0 0.137662 0 0 0 0 0 0 0 0 0 0.220833 0 0 0 0.3 0"/>
<feBlend mode="normal" in2="effect3_innerShadow_2_107" result="effect4_innerShadow_2_107"/>
</filter>
</defs>
</svg>
