<svg width="521" height="229" viewBox="0 0 521 229" fill="none" xmlns="http://www.w3.org/2000/svg">
<g filter="url(#filter0_iiii_3_317)">
<path d="M451.137 204.2C443.697 217.583 430.45 228.133 430.45 228.133C430.45 228.133 463.819 227.753 478.215 203.463C492.612 179.174 483.803 164.815 483.803 164.815L451.707 173.641C451.707 173.641 458.577 190.817 451.137 204.2Z" fill="white"/>
<path d="M224.199 53.6702C224.199 78.1282 201.075 97.9554 172.551 97.9554C144.026 97.9554 120.903 78.1282 120.903 53.6702C120.903 29.2121 144.026 9.38495 172.551 9.38495C201.075 9.38495 224.199 29.2121 224.199 53.6702Z" fill="white"/>
<path d="M352.145 44.2852C352.145 68.7433 318.773 88.5704 277.607 88.5704C236.441 88.5704 203.07 68.7433 203.07 44.2852C203.07 19.8272 236.441 0 277.607 0C318.773 0 352.145 19.8272 352.145 44.2852Z" fill="white"/>
<path d="M425.508 63.0551C425.508 87.5132 403.567 107.34 376.501 107.34C349.435 107.34 327.494 87.5132 327.494 63.0551C327.494 38.5971 349.435 18.7699 376.501 18.7699C403.567 18.7699 425.508 38.5971 425.508 63.0551Z" fill="white"/>
<path d="M520 104.408C520 150.732 481.899 188.286 434.898 188.286C387.898 188.286 349.797 150.732 349.797 104.408C349.797 58.083 387.898 20.5296 434.898 20.5296C481.899 20.5296 520 58.083 520 104.408Z" fill="white"/>
<path d="M468.939 120.245C468.939 166.569 439.246 204.123 402.619 204.123C365.991 204.123 336.298 166.569 336.298 120.245C336.298 73.9201 365.991 36.3667 402.619 36.3667C439.246 36.3667 468.939 73.9201 468.939 120.245Z" fill="white"/>
<path d="M406.14 128.456C406.14 174.781 374.739 212.334 336.005 212.334C297.27 212.334 265.869 174.781 265.869 128.456C265.869 82.1319 297.27 44.5785 336.005 44.5785C374.739 44.5785 406.14 82.1319 406.14 128.456Z" fill="white"/>
<path d="M349.797 122.004C349.797 168.329 318.396 205.882 279.661 205.882C240.927 205.882 209.526 168.329 209.526 122.004C209.526 75.6798 240.927 38.1263 279.661 38.1263C318.396 38.1263 349.797 75.6798 349.797 122.004Z" fill="white"/>
<path d="M294.628 129.043C294.628 175.368 261.782 212.921 221.264 212.921C180.747 212.921 147.901 175.368 147.901 129.043C147.901 82.7185 180.747 45.1651 221.264 45.1651C261.782 45.1651 294.628 82.7185 294.628 129.043Z" fill="white"/>
<path d="M215.395 122.004C215.395 168.329 186.622 205.882 151.129 205.882C115.635 205.882 86.8623 168.329 86.8623 122.004C86.8623 75.6798 115.635 38.1263 151.129 38.1263C186.622 38.1263 215.395 75.6798 215.395 122.004Z" fill="white"/>
<path d="M182.528 100.008C182.528 148.115 141.668 187.112 91.2641 187.112C40.8603 187.112 0 148.115 0 100.008C0 51.9021 40.8603 12.9043 91.2641 12.9043C141.668 12.9043 182.528 51.9021 182.528 100.008Z" fill="white"/>
</g>
<path d="M61.7346 72.4029V66.0212H76.914C77.1267 66.3555 77.309 66.7961 77.461 67.3431C77.6433 67.8901 77.7345 68.4827 77.7345 69.1209C77.7345 70.2453 77.4762 71.081 76.9596 71.628C76.4733 72.1446 75.8048 72.4029 74.9539 72.4029H61.7346ZM70.122 66.0212V72.4029H54.9426C54.7299 72.0686 54.5324 71.628 54.3501 71.081C54.1981 70.534 54.1221 69.9414 54.1221 69.3032C54.1221 68.1484 54.3653 67.3127 54.8515 66.7961C55.3681 66.2795 56.0519 66.0212 56.9027 66.0212H70.122ZM61.8258 71.1721H69.8029V93.5993C69.4686 93.6905 68.952 93.7816 68.2531 93.8728C67.5541 93.964 66.84 94.0096 66.1106 94.0096C64.5304 94.0096 63.4212 93.7361 62.783 93.1891C62.1449 92.6117 61.8258 91.624 61.8258 90.2261V71.1721ZM93.2158 72.722H92.9423C92.6688 73.5729 92.3649 74.4998 92.0307 75.5026C91.6964 76.5054 91.3469 77.5691 90.9822 78.6935C90.6176 79.7875 90.2681 80.9271 89.9338 82.1122L88.931 87.2632C88.7486 87.871 88.5815 88.4636 88.4296 89.0409C88.308 89.6183 88.1712 90.1653 88.0193 90.682C87.8977 91.1986 87.7762 91.7 87.6546 92.1862C87.5331 92.6724 87.4115 93.1435 87.29 93.5993C86.8949 93.7209 86.4543 93.8424 85.968 93.964C85.4818 94.0855 84.9044 94.1463 84.2359 94.1463C82.7164 94.1463 81.5768 93.888 80.8171 93.3714C80.0574 92.8244 79.6775 92.0799 79.6775 91.1378C79.6775 90.7123 79.7383 90.2869 79.8598 89.8615C79.9814 89.436 80.1181 88.9346 80.2701 88.3572C80.5132 87.3847 80.8779 86.1388 81.3641 84.6193C81.8503 83.0695 82.3821 81.4133 82.9595 79.6507C83.5673 77.8578 84.1599 76.1104 84.7373 74.4086C85.3451 72.7068 85.8921 71.1873 86.3783 69.8502C86.8645 68.4827 87.2292 67.4799 87.4723 66.8417C87.9889 66.5378 88.779 66.2491 89.8426 65.9756C90.9063 65.7021 91.9547 65.5654 92.9879 65.5654C94.5074 65.5654 95.8597 65.7933 97.0449 66.2491C98.23 66.6746 98.9746 67.3735 99.2785 68.346C99.8255 69.8958 100.403 71.7191 101.011 73.816C101.649 75.8825 102.287 78.0553 102.925 80.3345C103.594 82.5833 104.232 84.7865 104.84 86.9441C105.447 89.0713 105.979 90.9858 106.435 92.6876C106.07 93.0827 105.523 93.417 104.794 93.6905C104.065 93.964 103.199 94.1007 102.196 94.1007C100.707 94.1007 99.6735 93.8576 99.0961 93.3714C98.5187 92.8548 98.0933 92.0799 97.8198 91.0466L96.6802 86.6706L95.7685 81.9755C95.4646 80.7903 95.1607 79.6507 94.8569 78.5567C94.553 77.4627 94.2643 76.4295 93.9908 75.457C93.7173 74.4542 93.459 73.5425 93.2158 72.722ZM85.5122 87.9014L88.6575 81.7476H98.6859L99.6431 87.9014H85.5122ZM111.994 85.0752V68.6195C111.994 67.9813 112.177 67.4951 112.541 67.1608C112.906 66.7961 113.377 66.5074 113.954 66.2947C114.988 65.93 116.218 65.6717 117.647 65.5198C119.075 65.3374 120.351 65.2463 121.476 65.2463C125.639 65.2463 128.83 66.1427 131.048 67.9357C133.297 69.7287 134.421 72.1598 134.421 75.2291C134.421 77.2044 133.935 78.9366 132.963 80.4256C131.99 81.8843 130.623 83.0239 128.86 83.8444C127.098 84.6649 125.016 85.0752 122.615 85.0752H111.994ZM116.279 94.0096C114.699 94.0096 113.59 93.7361 112.951 93.1891C112.313 92.6117 111.994 91.624 111.994 90.2261V81.6108H119.971V93.5993C119.637 93.6905 119.12 93.7816 118.421 93.8728C117.723 93.964 117.008 94.0096 116.279 94.0096ZM119.926 78.8302H122.114C123.36 78.8302 124.363 78.5263 125.122 77.9185C125.912 77.2804 126.307 76.3839 126.307 75.2291C126.307 74.0743 125.943 73.193 125.213 72.5852C124.514 71.9471 123.481 71.628 122.114 71.628C121.628 71.628 121.217 71.6432 120.883 71.6736C120.579 71.6736 120.26 71.704 119.926 71.7647V78.8302ZM151.253 73.4969H159.23V93.5993C158.896 93.6905 158.379 93.7816 157.68 93.8728C156.981 93.964 156.267 94.0096 155.538 94.0096C153.958 94.0096 152.849 93.7361 152.21 93.1891C151.572 92.6117 151.253 91.624 151.253 90.2261V73.4969ZM159.23 84.0267H151.253V65.93C151.618 65.8692 152.15 65.7933 152.849 65.7021C153.578 65.5805 154.277 65.5198 154.945 65.5198C156.465 65.5198 157.559 65.7781 158.227 66.2947C158.896 66.8113 159.23 67.8141 159.23 69.3032V84.0267ZM166.965 75.4114H174.304C174.426 76.8093 174.502 78.1464 174.532 79.4228C174.593 80.6991 174.623 81.9147 174.623 83.0695C174.623 84.1939 174.623 85.3031 174.623 86.3971V93.6449C174.319 93.7057 173.818 93.7816 173.119 93.8728C172.45 93.964 171.767 94.0096 171.068 94.0096C169.548 94.0096 168.485 93.7513 167.877 93.2346C167.269 92.6876 166.965 91.7304 166.965 90.3629V75.4114ZM191.991 84.0723H184.652C184.469 81.9451 184.363 79.985 184.333 78.192C184.333 76.3991 184.333 74.6973 184.333 73.0867V65.8844C184.667 65.8237 185.168 65.7477 185.837 65.6565C186.505 65.5654 187.189 65.5198 187.888 65.5198C189.408 65.5198 190.471 65.7933 191.079 66.3403C191.687 66.8569 191.991 67.799 191.991 69.1665V84.0723ZM191.991 81.6108V75.8673V92.6876C191.565 93.0827 190.942 93.4018 190.122 93.6449C189.332 93.888 188.374 94.0096 187.25 94.0096C186.126 94.0096 185.062 93.8424 184.059 93.5081C183.056 93.1739 182.236 92.3686 181.598 91.0922L177.085 81.8843C176.781 81.2461 176.492 80.6535 176.219 80.1065C175.976 79.5292 175.733 78.9366 175.489 78.3288C175.246 77.721 174.973 77.0524 174.669 76.3231L166.965 78.0097V67.4343C167.391 66.8265 168.044 66.3707 168.925 66.0668C169.807 65.7629 170.749 65.6109 171.752 65.6109C172.876 65.6109 173.94 65.7933 174.942 66.1579C175.976 66.4922 176.796 67.2823 177.404 68.5283L181.962 77.7362C182.266 78.344 182.54 78.9366 182.783 79.514C183.056 80.0914 183.315 80.6839 183.558 81.2917C183.831 81.8995 184.105 82.5681 184.378 83.2974L191.991 81.6108ZM205.197 72.4029V66.0212H220.376C220.589 66.3555 220.771 66.7961 220.923 67.3431C221.105 67.8901 221.197 68.4827 221.197 69.1209C221.197 70.2453 220.938 71.081 220.422 71.628C219.935 72.1446 219.267 72.4029 218.416 72.4029H205.197ZM213.584 66.0212V72.4029H198.405C198.192 72.0686 197.995 71.628 197.812 71.081C197.66 70.534 197.584 69.9414 197.584 69.3032C197.584 68.1484 197.827 67.3127 198.314 66.7961C198.83 66.2795 199.514 66.0212 200.365 66.0212H213.584ZM205.288 71.1721H213.265V93.5993C212.931 93.6905 212.414 93.7816 211.715 93.8728C211.016 93.964 210.302 94.0096 209.573 94.0096C207.993 94.0096 206.883 93.7361 206.245 93.1891C205.607 92.6117 205.288 91.624 205.288 90.2261V71.1721ZM253.164 79.7875C253.164 82.9479 252.526 85.6222 251.25 87.8102C250.004 89.9982 248.287 91.6544 246.099 92.7788C243.941 93.9032 241.48 94.4654 238.714 94.4654C235.949 94.4654 233.472 93.9032 231.284 92.7788C229.127 91.6544 227.425 89.9982 226.179 87.8102C224.933 85.6222 224.31 82.9479 224.31 79.7875C224.31 76.627 224.948 73.9679 226.224 71.8103C227.501 69.6223 229.218 67.9661 231.375 66.8417C233.563 65.7173 236.01 65.1551 238.714 65.1551C241.419 65.1551 243.865 65.7173 246.053 66.8417C248.241 67.9661 249.973 69.6223 251.25 71.8103C252.526 73.9679 253.164 76.627 253.164 79.7875ZM244.959 79.7875C244.959 77.0828 244.397 75.0468 243.273 73.6792C242.148 72.2813 240.629 71.5824 238.714 71.5824C236.861 71.5824 235.356 72.2662 234.202 73.6337C233.077 75.0012 232.515 77.0524 232.515 79.7875C232.515 82.5529 233.077 84.6193 234.202 85.9868C235.356 87.3543 236.876 88.0381 238.76 88.0381C240.644 88.0381 242.148 87.3543 243.273 85.9868C244.397 84.6193 244.959 82.5529 244.959 79.7875ZM278.979 87.9925C280.468 87.9925 281.517 87.7494 282.125 87.2632C282.732 86.777 283.036 86.23 283.036 85.6222C283.036 85.0144 282.793 84.5434 282.307 84.2091C281.821 83.8444 281.137 83.5101 280.256 83.2062L278.341 82.5681C276.579 81.9603 275.014 81.3221 273.646 80.6535C272.309 79.9546 271.26 79.0581 270.501 77.9641C269.741 76.8701 269.361 75.4418 269.361 73.6792C269.361 71.0962 270.349 69.0297 272.324 67.4799C274.33 65.93 277.126 65.1551 280.711 65.1551C282.474 65.1551 284.039 65.3222 285.407 65.6565C286.774 65.9908 287.853 66.5074 288.643 67.2064C289.433 67.8749 289.828 68.741 289.828 69.8046C289.828 70.5644 289.646 71.2329 289.281 71.8103C288.917 72.3877 288.476 72.8739 287.959 73.269C287.291 72.8435 286.394 72.4789 285.27 72.175C284.145 71.8407 282.915 71.6736 281.578 71.6736C280.21 71.6736 279.207 71.8711 278.569 72.2662C277.931 72.6308 277.612 73.1019 277.612 73.6792C277.612 74.1351 277.809 74.5149 278.204 74.8188C278.63 75.0923 279.222 75.3506 279.982 75.5938L282.398 76.3687C285.285 77.2804 287.488 78.4655 289.008 79.9242C290.527 81.3525 291.287 83.2822 291.287 85.7133C291.287 88.2964 290.254 90.4085 288.187 92.0495C286.151 93.6601 283.173 94.4654 279.253 94.4654C277.399 94.4654 275.728 94.2679 274.239 93.8728C272.75 93.4778 271.564 92.8852 270.683 92.0951C269.802 91.3049 269.361 90.3477 269.361 89.2233C269.361 88.342 269.619 87.5975 270.136 86.9897C270.653 86.3515 271.215 85.8653 271.823 85.531C272.674 86.1996 273.707 86.777 274.922 87.2632C276.168 87.7494 277.521 87.9925 278.979 87.9925ZM309.602 94.4654C307.049 94.4654 304.846 94.0096 302.992 93.0979C301.169 92.1862 299.755 90.9099 298.753 89.2689C297.78 87.6279 297.294 85.7133 297.294 83.5253V80.7447H305.271V83.3886C305.271 84.8169 305.666 85.9565 306.456 86.8073C307.277 87.6279 308.325 88.0381 309.602 88.0381C310.878 88.0381 311.911 87.6279 312.701 86.8073C313.522 85.9565 313.932 84.8169 313.932 83.3886V80.7447H321.909V83.5253C321.909 85.7133 321.408 87.6279 320.405 89.2689C319.432 90.9099 318.019 92.1862 316.166 93.0979C314.342 94.0096 312.154 94.4654 309.602 94.4654ZM305.271 81.9755H297.294V65.93C297.659 65.8692 298.19 65.7933 298.889 65.7021C299.619 65.5805 300.318 65.5198 300.986 65.5198C302.506 65.5198 303.6 65.7781 304.268 66.2947C304.937 66.8113 305.271 67.8141 305.271 69.3032V81.9755ZM321.909 82.0666H313.932V65.93C314.297 65.8692 314.828 65.7933 315.527 65.7021C316.257 65.5805 316.956 65.5198 317.624 65.5198C319.144 65.5198 320.238 65.7781 320.906 66.2947C321.575 66.8113 321.909 67.8141 321.909 69.3032V82.0666ZM351.222 70.0326C351.222 70.7923 351.025 71.476 350.63 72.0838C350.235 72.6612 349.779 73.117 349.262 73.4513C348.502 72.9347 347.667 72.4941 346.755 72.1294C345.843 71.7647 344.795 71.5824 343.61 71.5824C342.06 71.5824 340.738 71.9167 339.644 72.5852C338.58 73.2234 337.76 74.1655 337.183 75.4114C336.636 76.627 336.362 78.1009 336.362 79.833C336.362 82.5073 337.031 84.5434 338.368 85.9413C339.735 87.3392 341.619 88.0381 344.02 88.0381C345.266 88.0381 346.314 87.871 347.165 87.5367C348.047 87.2024 348.882 86.8225 349.672 86.3971C350.189 86.7922 350.584 87.2936 350.858 87.9014C351.162 88.5091 351.313 89.2081 351.313 89.9982C351.313 90.6972 351.131 91.3353 350.766 91.9127C350.402 92.4901 349.779 92.9763 348.898 93.3714C348.351 93.6145 347.576 93.8576 346.573 94.1007C345.57 94.3438 344.354 94.4654 342.926 94.4654C340.191 94.4654 337.699 93.9488 335.45 92.9156C333.232 91.8823 331.454 90.2869 330.117 88.1293C328.81 85.9716 328.157 83.2062 328.157 79.833C328.157 76.6726 328.795 74.0135 330.071 71.8559C331.348 69.6679 333.065 68.0117 335.222 66.8873C337.41 65.7325 339.811 65.1551 342.425 65.1551C344.278 65.1551 345.859 65.3678 347.165 65.7933C348.472 66.2187 349.475 66.7961 350.174 67.5255C350.873 68.2548 351.222 69.0905 351.222 70.0326ZM378.642 70.0326C378.642 70.7923 378.444 71.476 378.049 72.0838C377.654 72.6612 377.198 73.117 376.682 73.4513C375.922 72.9347 375.086 72.4941 374.175 72.1294C373.263 71.7647 372.215 71.5824 371.029 71.5824C369.48 71.5824 368.158 71.9167 367.064 72.5852C366 73.2234 365.18 74.1655 364.602 75.4114C364.055 76.627 363.782 78.1009 363.782 79.833C363.782 82.5073 364.45 84.5434 365.787 85.9413C367.155 87.3392 369.039 88.0381 371.44 88.0381C372.686 88.0381 373.734 87.871 374.585 87.5367C375.466 87.2024 376.302 86.8225 377.092 86.3971C377.609 86.7922 378.004 87.2936 378.277 87.9014C378.581 88.5091 378.733 89.2081 378.733 89.9982C378.733 90.6972 378.551 91.3353 378.186 91.9127C377.821 92.4901 377.198 92.9763 376.317 93.3714C375.77 93.6145 374.995 93.8576 373.992 94.1007C372.99 94.3438 371.774 94.4654 370.346 94.4654C367.611 94.4654 365.119 93.9488 362.87 92.9156C360.652 91.8823 358.874 90.2869 357.537 88.1293C356.23 85.9716 355.577 83.2062 355.577 79.833C355.577 76.6726 356.215 74.0135 357.491 71.8559C358.767 69.6679 360.484 68.0117 362.642 66.8873C364.83 65.7325 367.231 65.1551 369.844 65.1551C371.698 65.1551 373.278 65.3678 374.585 65.7933C375.892 66.2187 376.895 66.7961 377.594 67.5255C378.292 68.2548 378.642 69.0905 378.642 70.0326ZM384.809 73.4969H392.558V93.3714C392.224 93.4626 391.738 93.5537 391.099 93.6449C390.461 93.7361 389.778 93.7816 389.048 93.7816C387.741 93.7816 386.708 93.4018 385.949 92.6421C385.189 91.8823 384.809 90.8491 384.809 89.5424V73.4969ZM392.558 86.3059H384.809V70.2605C384.809 68.9537 385.189 67.9205 385.949 67.1608C386.708 66.4011 387.741 66.0212 389.048 66.0212C389.778 66.0212 390.461 66.0668 391.099 66.1579C391.738 66.2491 392.224 66.3403 392.558 66.4314V86.3059ZM389.048 82.7048V76.5054H402.814C403.027 76.8397 403.21 77.2652 403.361 77.7818C403.544 78.2984 403.635 78.8758 403.635 79.514C403.635 80.6384 403.392 81.4589 402.906 81.9755C402.419 82.4617 401.751 82.7048 400.9 82.7048H389.048ZM389.048 93.7816V87.4911H404.273C404.486 87.8254 404.668 88.266 404.82 88.813C405.002 89.36 405.094 89.9526 405.094 90.5908C405.094 91.7152 404.851 92.5357 404.364 93.0523C403.878 93.5385 403.21 93.7816 402.359 93.7816H389.048ZM389.048 72.2662V66.0212H404.091C404.304 66.3555 404.486 66.7809 404.638 67.2975C404.82 67.8141 404.911 68.3915 404.911 69.0297C404.911 70.1541 404.668 70.9746 404.182 71.4912C403.696 72.0078 403.027 72.2662 402.176 72.2662H389.048ZM420.306 87.9925C421.796 87.9925 422.844 87.7494 423.452 87.2632C424.06 86.777 424.363 86.23 424.363 85.6222C424.363 85.0144 424.12 84.5434 423.634 84.2091C423.148 83.8444 422.464 83.5101 421.583 83.2062L419.668 82.5681C417.906 81.9603 416.341 81.3221 414.973 80.6535C413.636 79.9546 412.588 79.0581 411.828 77.9641C411.068 76.8701 410.688 75.4418 410.688 73.6792C410.688 71.0962 411.676 69.0297 413.651 67.4799C415.657 65.93 418.453 65.1551 422.039 65.1551C423.801 65.1551 425.366 65.3222 426.734 65.6565C428.101 65.9908 429.18 66.5074 429.97 67.2064C430.76 67.8749 431.155 68.741 431.155 69.8046C431.155 70.5644 430.973 71.2329 430.608 71.8103C430.244 72.3877 429.803 72.8739 429.286 73.269C428.618 72.8435 427.721 72.4789 426.597 72.175C425.473 71.8407 424.242 71.6736 422.905 71.6736C421.537 71.6736 420.534 71.8711 419.896 72.2662C419.258 72.6308 418.939 73.1019 418.939 73.6792C418.939 74.1351 419.137 74.5149 419.532 74.8188C419.957 75.0923 420.55 75.3506 421.309 75.5938L423.725 76.3687C426.612 77.2804 428.815 78.4655 430.335 79.9242C431.854 81.3525 432.614 83.2822 432.614 85.7133C432.614 88.2964 431.581 90.4085 429.514 92.0495C427.478 93.6601 424.5 94.4654 420.58 94.4654C418.726 94.4654 417.055 94.2679 415.566 93.8728C414.077 93.4778 412.892 92.8852 412.01 92.0951C411.129 91.3049 410.688 90.3477 410.688 89.2233C410.688 88.342 410.947 87.5975 411.463 86.9897C411.98 86.3515 412.542 85.8653 413.15 85.531C414.001 86.1996 415.034 86.777 416.25 87.2632C417.495 87.7494 418.848 87.9925 420.306 87.9925ZM447.236 87.9925C448.726 87.9925 449.774 87.7494 450.382 87.2632C450.99 86.777 451.293 86.23 451.293 85.6222C451.293 85.0144 451.05 84.5434 450.564 84.2091C450.078 83.8444 449.394 83.5101 448.513 83.2062L446.598 82.5681C444.836 81.9603 443.271 81.3221 441.903 80.6535C440.566 79.9546 439.518 79.0581 438.758 77.9641C437.998 76.8701 437.618 75.4418 437.618 73.6792C437.618 71.0962 438.606 69.0297 440.581 67.4799C442.587 65.93 445.383 65.1551 448.969 65.1551C450.731 65.1551 452.296 65.3222 453.664 65.6565C455.031 65.9908 456.11 66.5074 456.9 67.2064C457.69 67.8749 458.085 68.741 458.085 69.8046C458.085 70.5644 457.903 71.2329 457.538 71.8103C457.174 72.3877 456.733 72.8739 456.216 73.269C455.548 72.8435 454.651 72.4789 453.527 72.175C452.403 71.8407 451.172 71.6736 449.835 71.6736C448.467 71.6736 447.464 71.8711 446.826 72.2662C446.188 72.6308 445.869 73.1019 445.869 73.6792C445.869 74.1351 446.066 74.5149 446.462 74.8188C446.887 75.0923 447.48 75.3506 448.239 75.5938L450.655 76.3687C453.542 77.2804 455.745 78.4655 457.265 79.9242C458.784 81.3525 459.544 83.2822 459.544 85.7133C459.544 88.2964 458.511 90.4085 456.444 92.0495C454.408 93.6601 451.43 94.4654 447.51 94.4654C445.656 94.4654 443.985 94.2679 442.496 93.8728C441.007 93.4778 439.822 92.8852 438.94 92.0951C438.059 91.3049 437.618 90.3477 437.618 89.2233C437.618 88.342 437.877 87.5975 438.393 86.9897C438.91 86.3515 439.472 85.8653 440.08 85.531C440.931 86.1996 441.964 86.777 443.18 87.2632C444.425 87.7494 445.778 87.9925 447.236 87.9925Z" fill="#FE7C3C"/>
<path d="M71.4921 120.395C71.8055 120.252 72.2898 120.095 72.9451 119.924C73.6289 119.725 74.3126 119.625 74.9964 119.625C76.1929 119.625 77.1901 119.811 77.9878 120.181C78.7855 120.523 79.2698 121.036 79.4408 121.719C79.8681 123.286 80.2527 124.711 80.5946 125.993C80.9365 127.275 81.2641 128.514 81.5775 129.711C81.9194 130.907 82.247 132.175 82.5604 133.514H82.7741C83.116 131.178 83.4009 128.984 83.6288 126.933C83.8852 124.853 84.1274 122.83 84.3553 120.865C84.5832 118.87 84.8111 116.848 85.039 114.796C86.1216 114.198 87.247 113.899 88.4151 113.899C89.4692 113.899 90.3809 114.127 91.1501 114.583C91.9193 115.038 92.3039 115.808 92.3039 116.89C92.3039 117.517 92.2327 118.4 92.0903 119.54C91.9763 120.679 91.8054 121.976 91.5774 123.429C91.378 124.882 91.1358 126.377 90.8509 127.916C90.566 129.454 90.2669 130.95 89.9535 132.403C89.6401 133.856 89.3125 135.152 88.9706 136.292C88.6572 137.431 88.3581 138.315 88.0732 138.941C87.6458 139.312 86.9478 139.639 85.9792 139.924C85.0105 140.181 84.0134 140.309 82.9878 140.309C81.6772 140.309 80.5519 140.124 79.6117 139.753C78.6716 139.383 78.1018 138.884 77.9023 138.258C77.6744 137.488 77.418 136.634 77.1331 135.694C76.8482 134.753 76.5491 133.728 76.2357 132.617C75.9508 131.477 75.6516 130.281 75.3383 129.027C75.0818 130.252 74.8112 131.477 74.5263 132.702C74.2414 133.899 73.9565 135.038 73.6716 136.121C73.4152 137.175 73.173 138.115 72.9451 138.941C72.5178 139.312 71.8767 139.639 71.022 139.924C70.1674 140.181 69.2272 140.309 68.2016 140.309C66.948 140.309 65.7942 140.124 64.74 139.753C63.6859 139.383 63.0022 138.884 62.6888 138.258C62.4039 137.631 62.0762 136.676 61.7059 135.394C61.3355 134.084 60.9509 132.588 60.552 130.907C60.1532 129.198 59.7686 127.432 59.3982 125.608C59.0563 123.756 58.7429 121.947 58.458 120.181C58.1731 118.415 57.9595 116.819 57.817 115.395C58.2159 115.024 58.7714 114.682 59.4837 114.369C60.1959 114.056 60.9651 113.899 61.7914 113.899C62.874 113.899 63.7571 114.141 64.4409 114.625C65.1531 115.081 65.5947 115.865 65.7657 116.976C66.25 119.882 66.6346 122.303 66.9195 124.241C67.2044 126.178 67.4323 127.759 67.6033 128.984C67.7742 130.209 67.9024 131.178 67.9879 131.89C68.1018 132.574 68.2016 133.115 68.287 133.514H68.5007C68.7571 132.375 68.9993 131.32 69.2272 130.352C69.4551 129.383 69.683 128.414 69.9109 127.446C70.1674 126.477 70.4238 125.423 70.6802 124.283C70.9366 123.144 71.2072 121.848 71.4921 120.395ZM96.4185 121.078H103.897V139.924C103.584 140.01 103.099 140.095 102.444 140.181C101.789 140.266 101.119 140.309 100.436 140.309C98.9541 140.309 97.9142 140.053 97.3159 139.54C96.7176 138.998 96.4185 138.072 96.4185 136.762V121.078ZM103.897 130.95H96.4185V113.984C96.7604 113.927 97.2589 113.856 97.9142 113.771C98.5979 113.657 99.2532 113.6 99.88 113.6C101.304 113.6 102.33 113.842 102.957 114.326C103.584 114.811 103.897 115.751 103.897 117.147V130.95ZM114.567 120.053V114.07H128.798C128.997 114.383 129.168 114.796 129.311 115.309C129.482 115.822 129.567 116.377 129.567 116.976C129.567 118.03 129.325 118.813 128.841 119.326C128.385 119.811 127.758 120.053 126.96 120.053H114.567ZM122.431 114.07V120.053H108.2C108 119.739 107.815 119.326 107.644 118.813C107.502 118.301 107.431 117.745 107.431 117.147C107.431 116.064 107.659 115.281 108.114 114.796C108.599 114.312 109.24 114.07 110.037 114.07H122.431ZM114.653 118.899H122.131V139.924C121.818 140.01 121.334 140.095 120.678 140.181C120.023 140.266 119.354 140.309 118.67 140.309C117.188 140.309 116.149 140.053 115.55 139.54C114.952 138.998 114.653 138.072 114.653 136.762V118.899ZM133.185 121.078H140.664V139.924C140.351 140.01 139.866 140.095 139.211 140.181C138.556 140.266 137.886 140.309 137.202 140.309C135.721 140.309 134.681 140.053 134.083 139.54C133.484 138.998 133.185 138.072 133.185 136.762V121.078ZM140.664 130.95H133.185V113.984C133.527 113.927 134.026 113.856 134.681 113.771C135.365 113.657 136.02 113.6 136.647 113.6C138.071 113.6 139.097 113.842 139.724 114.326C140.351 114.811 140.664 115.751 140.664 117.147V130.95ZM148.869 121.078H156.348V139.924C156.034 140.01 155.55 140.095 154.895 140.181C154.239 140.266 153.57 140.309 152.886 140.309C151.405 140.309 150.365 140.053 149.766 139.54C149.168 138.998 148.869 138.072 148.869 136.762V121.078ZM156.348 130.95H148.869V113.984C149.211 113.927 149.709 113.856 150.365 113.771C151.048 113.657 151.704 113.6 152.33 113.6C153.755 113.6 154.781 113.856 155.407 114.369C156.034 114.882 156.348 115.836 156.348 117.232V130.95ZM153.185 129.967H136.39V124.07H153.185V129.967ZM170.453 131.933V116.506C170.453 115.907 170.624 115.452 170.966 115.138C171.308 114.796 171.749 114.526 172.291 114.326C173.259 113.984 174.413 113.742 175.752 113.6C177.091 113.429 178.288 113.343 179.342 113.343C183.245 113.343 186.236 114.184 188.316 115.865C190.424 117.546 191.478 119.825 191.478 122.702C191.478 124.554 191.023 126.178 190.111 127.574C189.199 128.941 187.917 130.01 186.265 130.779C184.612 131.548 182.661 131.933 180.41 131.933H170.453ZM174.47 140.309C172.989 140.309 171.949 140.053 171.35 139.54C170.752 138.998 170.453 138.072 170.453 136.762V128.685H177.932V139.924C177.618 140.01 177.134 140.095 176.479 140.181C175.823 140.266 175.154 140.309 174.47 140.309ZM177.889 126.078H179.94C181.108 126.078 182.048 125.793 182.761 125.224C183.501 124.625 183.872 123.785 183.872 122.702C183.872 121.62 183.53 120.793 182.846 120.224C182.191 119.625 181.222 119.326 179.94 119.326C179.484 119.326 179.1 119.34 178.786 119.369C178.501 119.369 178.202 119.397 177.889 119.454V126.078ZM195.284 121.078H202.763V139.711L199.259 140.095C198.033 140.095 197.065 139.739 196.353 139.027C195.64 138.315 195.284 137.346 195.284 136.121V121.078ZM199.259 140.095V134.07H212.549C212.748 134.383 212.934 134.796 213.105 135.309C213.276 135.822 213.361 136.377 213.361 136.976C213.361 138.03 213.133 138.813 212.677 139.326C212.221 139.839 211.595 140.095 210.797 140.095H199.259ZM202.763 130.95H195.284V113.984C195.626 113.927 196.125 113.856 196.78 113.771C197.464 113.657 198.119 113.6 198.746 113.6C200.17 113.6 201.196 113.842 201.823 114.326C202.449 114.811 202.763 115.751 202.763 117.147V130.95ZM228.509 120.352H228.252C227.996 121.15 227.711 122.018 227.398 122.959C227.084 123.899 226.757 124.896 226.415 125.95C226.073 126.976 225.745 128.044 225.432 129.155L224.492 133.984C224.321 134.554 224.164 135.11 224.022 135.651C223.908 136.192 223.779 136.705 223.637 137.189C223.523 137.674 223.409 138.144 223.295 138.6C223.181 139.055 223.067 139.497 222.953 139.924C222.583 140.038 222.17 140.152 221.714 140.266C221.258 140.38 220.717 140.437 220.09 140.437C218.666 140.437 217.597 140.195 216.885 139.711C216.173 139.198 215.817 138.5 215.817 137.617C215.817 137.218 215.874 136.819 215.987 136.42C216.101 136.021 216.23 135.551 216.372 135.01C216.6 134.098 216.942 132.93 217.398 131.506C217.854 130.053 218.352 128.5 218.893 126.847C219.463 125.167 220.019 123.528 220.56 121.933C221.13 120.338 221.643 118.913 222.099 117.66C222.554 116.377 222.896 115.437 223.124 114.839C223.609 114.554 224.349 114.283 225.346 114.027C226.344 113.771 227.326 113.642 228.295 113.642C229.72 113.642 230.987 113.856 232.098 114.283C233.21 114.682 233.908 115.338 234.192 116.249C234.705 117.702 235.247 119.412 235.816 121.377C236.415 123.315 237.013 125.352 237.611 127.489C238.238 129.597 238.836 131.662 239.406 133.685C239.976 135.679 240.474 137.474 240.902 139.07C240.56 139.44 240.047 139.753 239.363 140.01C238.68 140.266 237.868 140.394 236.927 140.394C235.531 140.394 234.563 140.166 234.022 139.711C233.48 139.226 233.081 138.5 232.825 137.531L231.757 133.429L230.902 129.027C230.617 127.916 230.332 126.847 230.047 125.822C229.762 124.796 229.492 123.828 229.235 122.916C228.979 121.976 228.737 121.121 228.509 120.352ZM221.287 134.582L224.235 128.813H233.637L234.534 134.582H221.287ZM255.818 131.933H249.108C248.396 130.879 247.598 129.668 246.715 128.3C245.832 126.904 244.949 125.466 244.066 123.984C243.211 122.503 242.413 121.078 241.672 119.711C240.932 118.315 240.348 117.075 239.92 115.993C240.291 115.48 240.789 115.01 241.416 114.583C242.071 114.155 242.869 113.942 243.809 113.942C244.92 113.942 245.818 114.17 246.501 114.625C247.214 115.081 247.883 115.936 248.51 117.189C248.51 117.189 248.638 117.446 248.895 117.959C249.151 118.471 249.464 119.098 249.835 119.839C250.205 120.58 250.575 121.335 250.946 122.104C251.316 122.845 251.63 123.471 251.886 123.984C252.142 124.497 252.271 124.753 252.271 124.753H252.527C253.068 123.557 253.538 122.46 253.937 121.463C254.365 120.466 254.778 119.44 255.177 118.386C255.604 117.303 256.088 116.093 256.63 114.754C257.142 114.497 257.712 114.298 258.339 114.155C258.966 114.013 259.564 113.942 260.134 113.942C261.131 113.942 261.971 114.212 262.655 114.754C263.367 115.266 263.723 116.05 263.723 117.104C263.723 117.446 263.624 117.916 263.424 118.514C263.225 119.084 262.84 119.91 262.27 120.993C261.729 122.047 260.931 123.457 259.877 125.224C258.852 126.99 257.498 129.226 255.818 131.933ZM248.766 129.369H256.074V139.924C255.761 140.01 255.276 140.095 254.621 140.181C253.994 140.266 253.353 140.309 252.698 140.309C251.216 140.309 250.191 140.053 249.621 139.54C249.051 139.027 248.766 138.129 248.766 136.847V129.369ZM276.418 120.352H276.162C275.906 121.15 275.621 122.018 275.307 122.959C274.994 123.899 274.666 124.896 274.324 125.95C273.982 126.976 273.655 128.044 273.341 129.155L272.401 133.984C272.23 134.554 272.074 135.11 271.931 135.651C271.817 136.192 271.689 136.705 271.547 137.189C271.433 137.674 271.319 138.144 271.205 138.6C271.091 139.055 270.977 139.497 270.863 139.924C270.492 140.038 270.079 140.152 269.624 140.266C269.168 140.38 268.626 140.437 268 140.437C266.575 140.437 265.507 140.195 264.795 139.711C264.082 139.198 263.726 138.5 263.726 137.617C263.726 137.218 263.783 136.819 263.897 136.42C264.011 136.021 264.139 135.551 264.282 135.01C264.51 134.098 264.851 132.93 265.307 131.506C265.763 130.053 266.262 128.5 266.803 126.847C267.373 125.167 267.928 123.528 268.47 121.933C269.039 120.338 269.552 118.913 270.008 117.66C270.464 116.377 270.806 115.437 271.034 114.839C271.518 114.554 272.259 114.283 273.256 114.027C274.253 113.771 275.236 113.642 276.205 113.642C277.629 113.642 278.897 113.856 280.008 114.283C281.119 114.682 281.817 115.338 282.102 116.249C282.615 117.702 283.156 119.412 283.726 121.377C284.324 123.315 284.923 125.352 285.521 127.489C286.148 129.597 286.746 131.662 287.316 133.685C287.885 135.679 288.384 137.474 288.811 139.07C288.47 139.44 287.957 139.753 287.273 140.01C286.589 140.266 285.777 140.394 284.837 140.394C283.441 140.394 282.472 140.166 281.931 139.711C281.39 139.226 280.991 138.5 280.735 137.531L279.666 133.429L278.811 129.027C278.527 127.916 278.242 126.847 277.957 125.822C277.672 124.796 277.401 123.828 277.145 122.916C276.888 121.976 276.646 121.121 276.418 120.352ZM269.196 134.582L272.145 128.813H281.547L282.444 134.582H269.196ZM305.732 124.198V129.412H296.929V124.198H305.732ZM303.083 129.412L303.296 125.395C305.804 125.395 307.883 125.665 309.536 126.206C311.188 126.748 312.427 127.531 313.254 128.557C314.108 129.583 314.536 130.85 314.536 132.36C314.536 135.152 313.482 137.232 311.373 138.6C309.265 139.967 306.259 140.651 302.356 140.651C301.701 140.651 300.918 140.622 300.006 140.565C299.094 140.508 298.168 140.394 297.228 140.223C296.288 140.081 295.433 139.867 294.664 139.582C293.097 138.984 292.314 137.944 292.314 136.463V116.506C292.314 115.907 292.485 115.452 292.826 115.138C293.168 114.796 293.61 114.526 294.151 114.326C295.12 113.984 296.331 113.742 297.784 113.6C299.265 113.429 300.761 113.343 302.271 113.343C305.889 113.343 308.681 113.97 310.647 115.224C312.641 116.449 313.638 118.329 313.638 120.865C313.638 122.289 313.197 123.486 312.313 124.454C311.459 125.395 310.234 126.107 308.638 126.591C307.043 127.047 305.148 127.275 302.955 127.275L302.698 124.198C303.923 124.198 304.806 123.97 305.348 123.514C305.918 123.058 306.202 122.389 306.202 121.506C306.202 120.736 305.875 120.124 305.22 119.668C304.593 119.212 303.638 118.984 302.356 118.984C301.929 118.984 301.43 118.999 300.861 119.027C300.319 119.056 299.892 119.098 299.579 119.155V134.625C299.977 134.739 300.49 134.825 301.117 134.882C301.772 134.91 302.371 134.924 302.912 134.924C304.051 134.924 304.992 134.696 305.732 134.241C306.502 133.756 306.886 133.016 306.886 132.018C306.886 131.078 306.559 130.409 305.903 130.01C305.277 129.611 304.336 129.412 303.083 129.412ZM318.772 121.078H326.251V139.711L322.747 140.095C321.522 140.095 320.553 139.739 319.841 139.027C319.129 138.315 318.772 137.346 318.772 136.121V121.078ZM322.747 140.095V134.07H336.037C336.237 134.383 336.422 134.796 336.593 135.309C336.764 135.822 336.849 136.377 336.849 136.976C336.849 138.03 336.621 138.813 336.165 139.326C335.71 139.839 335.083 140.095 334.285 140.095H322.747ZM326.251 130.95H318.772V113.984C319.114 113.927 319.613 113.856 320.268 113.771C320.952 113.657 321.607 113.6 322.234 113.6C323.658 113.6 324.684 113.842 325.311 114.326C325.938 114.811 326.251 115.751 326.251 117.147V130.95ZM340.682 121.078H347.947V139.711C347.634 139.796 347.178 139.882 346.58 139.967C345.981 140.053 345.34 140.095 344.657 140.095C343.432 140.095 342.463 139.739 341.751 139.027C341.038 138.315 340.682 137.346 340.682 136.121V121.078ZM347.947 133.087H340.682V118.044C340.682 116.819 341.038 115.85 341.751 115.138C342.463 114.426 343.432 114.07 344.657 114.07C345.34 114.07 345.981 114.113 346.58 114.198C347.178 114.283 347.634 114.369 347.947 114.454V133.087ZM344.657 129.711V123.899H357.563C357.762 124.212 357.933 124.611 358.075 125.095C358.246 125.58 358.332 126.121 358.332 126.719C358.332 127.773 358.104 128.543 357.648 129.027C357.192 129.483 356.565 129.711 355.768 129.711H344.657ZM344.657 140.095V134.198H358.93C359.129 134.511 359.3 134.924 359.443 135.437C359.614 135.95 359.699 136.506 359.699 137.104C359.699 138.158 359.471 138.927 359.016 139.411C358.56 139.867 357.933 140.095 357.135 140.095H344.657ZM344.657 119.924V114.07H358.759C358.959 114.383 359.129 114.782 359.272 115.266C359.443 115.751 359.528 116.292 359.528 116.89C359.528 117.944 359.3 118.714 358.845 119.198C358.389 119.682 357.762 119.924 356.964 119.924H344.657ZM383.547 120.352H383.291C383.034 121.15 382.75 122.018 382.436 122.959C382.123 123.899 381.795 124.896 381.453 125.95C381.111 126.976 380.784 128.044 380.47 129.155L379.53 133.984C379.359 134.554 379.203 135.11 379.06 135.651C378.946 136.192 378.818 136.705 378.675 137.189C378.562 137.674 378.448 138.144 378.334 138.6C378.22 139.055 378.106 139.497 377.992 139.924C377.621 140.038 377.208 140.152 376.752 140.266C376.297 140.38 375.755 140.437 375.128 140.437C373.704 140.437 372.636 140.195 371.923 139.711C371.211 139.198 370.855 138.5 370.855 137.617C370.855 137.218 370.912 136.819 371.026 136.42C371.14 136.021 371.268 135.551 371.411 135.01C371.638 134.098 371.98 132.93 372.436 131.506C372.892 130.053 373.391 128.5 373.932 126.847C374.502 125.167 375.057 123.528 375.599 121.933C376.168 120.338 376.681 118.913 377.137 117.66C377.593 116.377 377.935 115.437 378.163 114.839C378.647 114.554 379.388 114.283 380.385 114.027C381.382 113.771 382.365 113.642 383.334 113.642C384.758 113.642 386.026 113.856 387.137 114.283C388.248 114.682 388.946 115.338 389.231 116.249C389.744 117.702 390.285 119.412 390.855 121.377C391.453 123.315 392.051 125.352 392.65 127.489C393.277 129.597 393.875 131.662 394.445 133.685C395.014 135.679 395.513 137.474 395.94 139.07C395.598 139.44 395.086 139.753 394.402 140.01C393.718 140.266 392.906 140.394 391.966 140.394C390.57 140.394 389.601 140.166 389.06 139.711C388.519 139.226 388.12 138.5 387.863 137.531L386.795 133.429L385.94 129.027C385.655 127.916 385.371 126.847 385.086 125.822C384.801 124.796 384.53 123.828 384.274 122.916C384.017 121.976 383.775 121.121 383.547 120.352ZM376.325 134.582L379.274 128.813H388.675L389.573 134.582H376.325ZM415.938 127.104C415.938 125.395 415.667 123.97 415.126 122.83C414.585 121.691 413.816 120.836 412.818 120.266C411.85 119.668 410.696 119.369 409.357 119.369C408.958 119.369 408.545 119.383 408.118 119.412C407.719 119.44 407.306 119.483 406.878 119.54V134.412C407.192 134.469 407.576 134.525 408.032 134.582C408.517 134.611 408.944 134.625 409.314 134.625C411.252 134.625 412.833 133.998 414.058 132.745C415.311 131.491 415.938 129.611 415.938 127.104ZM423.63 126.976C423.63 130.024 423.032 132.56 421.836 134.582C420.639 136.605 418.958 138.129 416.793 139.155C414.656 140.152 412.149 140.651 409.272 140.651C408.303 140.651 407.092 140.58 405.639 140.437C404.215 140.295 402.933 140.01 401.793 139.582C400.226 138.984 399.443 137.944 399.443 136.463V116.506C399.443 115.907 399.613 115.452 399.955 115.138C400.297 114.796 400.739 114.526 401.28 114.326C402.505 113.927 403.801 113.671 405.169 113.557C406.536 113.415 407.762 113.343 408.844 113.343C411.807 113.343 414.385 113.842 416.579 114.839C418.801 115.808 420.525 117.303 421.75 119.326C423.004 121.32 423.63 123.87 423.63 126.976ZM435.853 134.668C437.249 134.668 438.232 134.44 438.802 133.984C439.372 133.528 439.657 133.016 439.657 132.446C439.657 131.876 439.429 131.434 438.973 131.121C438.517 130.779 437.876 130.466 437.05 130.181L435.255 129.583C433.602 129.013 432.135 128.414 430.853 127.788C429.6 127.132 428.617 126.292 427.904 125.266C427.192 124.241 426.836 122.902 426.836 121.249C426.836 118.828 427.762 116.89 429.614 115.437C431.494 113.984 434.115 113.258 437.477 113.258C439.129 113.258 440.597 113.415 441.879 113.728C443.161 114.041 444.172 114.526 444.913 115.181C445.654 115.808 446.024 116.62 446.024 117.617C446.024 118.329 445.853 118.956 445.511 119.497C445.169 120.038 444.756 120.494 444.272 120.865C443.645 120.466 442.805 120.124 441.751 119.839C440.696 119.526 439.543 119.369 438.289 119.369C437.007 119.369 436.067 119.554 435.469 119.924C434.87 120.266 434.571 120.708 434.571 121.249C434.571 121.677 434.756 122.033 435.127 122.318C435.526 122.574 436.081 122.816 436.793 123.044L439.058 123.771C441.765 124.625 443.83 125.736 445.255 127.104C446.679 128.443 447.392 130.252 447.392 132.531C447.392 134.953 446.423 136.933 444.486 138.471C442.577 139.981 439.785 140.736 436.11 140.736C434.372 140.736 432.805 140.551 431.409 140.181C430.013 139.81 428.902 139.255 428.075 138.514C427.249 137.773 426.836 136.876 426.836 135.822C426.836 134.996 427.078 134.298 427.563 133.728C428.047 133.129 428.574 132.674 429.144 132.36C429.942 132.987 430.91 133.528 432.05 133.984C433.218 134.44 434.486 134.668 435.853 134.668ZM458.792 116.121C458.792 116.776 458.764 117.674 458.707 118.813C458.678 119.924 458.621 121.164 458.536 122.531C458.479 123.87 458.379 125.209 458.237 126.548C458.094 127.859 457.923 129.041 457.724 130.095C457.496 130.295 457.083 130.451 456.485 130.565C455.915 130.679 455.431 130.736 455.032 130.736C454.234 130.736 453.55 130.608 452.98 130.352C452.411 130.067 452.055 129.568 451.912 128.856C451.798 128.201 451.684 127.261 451.57 126.036C451.456 124.81 451.357 123.457 451.271 121.976C451.186 120.494 451.114 119.041 451.057 117.617C451.029 116.192 451.015 114.939 451.015 113.856C452.24 113.172 453.607 112.831 455.117 112.831C456.285 112.831 457.183 113.101 457.809 113.642C458.465 114.184 458.792 115.01 458.792 116.121ZM450.929 136.719C450.929 135.551 451.3 134.597 452.04 133.856C452.781 133.087 453.778 132.702 455.032 132.702C456.285 132.702 457.282 133.087 458.023 133.856C458.764 134.597 459.134 135.551 459.134 136.719C459.134 137.887 458.764 138.856 458.023 139.625C457.282 140.366 456.285 140.736 455.032 140.736C453.778 140.736 452.781 140.366 452.04 139.625C451.3 138.856 450.929 137.887 450.929 136.719Z" fill="#FE7C3C"/>
<defs>
<filter id="filter0_iiii_3_317" x="-14.0858" y="-14.0858" width="548.172" height="256.478" filterUnits="userSpaceOnUse" color-interpolation-filters="sRGB">
<feFlood flood-opacity="0" result="BackgroundImageFix"/>
<feBlend mode="normal" in="SourceGraphic" in2="BackgroundImageFix" result="shape"/>
<feColorMatrix in="SourceAlpha" type="matrix" values="0 0 0 0 0 0 0 0 0 0 0 0 0 0 0 0 0 0 127 0" result="hardAlpha"/>
<feOffset dx="14.0858" dy="14.0858"/>
<feGaussianBlur stdDeviation="28.1716"/>
<feComposite in2="hardAlpha" operator="arithmetic" k2="-1" k3="1"/>
<feColorMatrix type="matrix" values="0 0 0 0 0.709804 0 0 0 0 0.705882 0 0 0 0 0.764706 0 0 0 0.5 0"/>
<feBlend mode="normal" in2="shape" result="effect1_innerShadow_3_317"/>
<feColorMatrix in="SourceAlpha" type="matrix" values="0 0 0 0 0 0 0 0 0 0 0 0 0 0 0 0 0 0 127 0" result="hardAlpha"/>
<feOffset dx="-14.0858" dy="-14.0858"/>
<feGaussianBlur stdDeviation="28.1716"/>
<feComposite in2="hardAlpha" operator="arithmetic" k2="-1" k3="1"/>
<feColorMatrix type="matrix" values="0 0 0 0 0.709804 0 0 0 0 0.705882 0 0 0 0 0.764706 0 0 0 1 0"/>
<feBlend mode="normal" in2="effect1_innerShadow_3_317" result="effect2_innerShadow_3_317"/>
<feColorMatrix in="SourceAlpha" type="matrix" values="0 0 0 0 0 0 0 0 0 0 0 0 0 0 0 0 0 0 127 0" result="hardAlpha"/>
<feOffset dy="8.80361"/>
<feGaussianBlur stdDeviation="2.93454"/>
<feComposite in2="hardAlpha" operator="arithmetic" k2="-1" k3="1"/>
<feColorMatrix type="matrix" values="0 0 0 0 1 0 0 0 0 1 0 0 0 0 1 0 0 0 1 0"/>
<feBlend mode="normal" in2="effect2_innerShadow_3_317" result="effect3_innerShadow_3_317"/>
<feColorMatrix in="SourceAlpha" type="matrix" values="0 0 0 0 0 0 0 0 0 0 0 0 0 0 0 0 0 0 127 0" result="hardAlpha"/>
<feOffset dy="-8.80361"/>
<feGaussianBlur stdDeviation="2.93454"/>
<feComposite in2="hardAlpha" operator="arithmetic" k2="-1" k3="1"/>
<feColorMatrix type="matrix" values="0 0 0 0 0.137662 0 0 0 0 0 0 0 0 0 0.220833 0 0 0 0.3 0"/>
<feBlend mode="normal" in2="effect3_innerShadow_3_317" result="effect4_innerShadow_3_317"/>
</filter>
</defs>
</svg>
