<svg width="314" height="126" viewBox="0 0 314 126" fill="none" xmlns="http://www.w3.org/2000/svg">
<path fill-rule="evenodd" clip-rule="evenodd" d="M246.688 73.5416C244.16 74.0041 239.28 74.8075 237.069 73.146C235.771 72.1721 235.412 70.5958 235.412 68.8368V30.3892C237.94 29.9267 242.82 29.1293 245.031 30.7848C246.329 31.7587 246.688 33.335 246.688 35.094V73.5477V73.5416Z" fill="#FCFFFF"/>
<path fill-rule="evenodd" clip-rule="evenodd" d="M102.073 39.8779C110.243 39.8779 117.998 42.7141 117.998 52.008V66.8587C117.998 69.135 116.548 70.4801 114.745 71.5635C109.463 74.7345 97.346 75.3797 91.4183 71.4965C85.8745 67.863 86.1487 59.7133 89.9258 56.3111C91.7412 54.6799 94.5497 53.6574 98.3512 53.2618C101.251 52.9514 104.145 52.641 107.045 52.3367C107.045 50.9064 106.837 49.8413 105.351 49.117C101.793 47.3763 95.0249 48.5875 91.2478 50.1456C89.3287 48.8187 87.1721 43.4323 92.5697 41.2656C93.8552 40.7787 95.366 40.4256 97.1145 40.2005L102.08 39.8779H102.073ZM102.603 65.9336C103.828 65.9336 106.094 65.6841 107.118 65.0754V59.7681C104.845 59.9568 100.995 60.0177 99.2894 60.9611C97.614 61.8923 97.7968 64.0408 99.1188 65.1059C99.8072 65.6597 100.965 65.9336 102.603 65.9336Z" fill="#FCFFFF"/>
<path fill-rule="evenodd" clip-rule="evenodd" d="M129.342 64.8746C126.046 57.4005 124.17 50.8942 122.171 42.5376C124.559 40.1518 129.123 39.4153 131.925 41.1804C132.942 41.8194 133.692 43.0306 134.179 44.7957C135.927 50.8699 137.676 56.9501 139.418 63.0243C139.51 63.0243 139.595 63.0243 139.686 63.0243C141.733 57.2179 144.158 47.5954 145.2 41.4786C147.789 40.1153 151.803 39.5918 154.289 41.2108C156.44 42.6107 155.861 46.2016 155.355 48.8005C153.576 57.9057 146.077 77.2117 139.034 82.805C134.721 86.2317 127.344 85.6474 126.497 78.855C129.336 76.6395 132.315 73.8398 134.587 71.034C132.217 70.3402 130.658 67.7778 129.348 64.8685L129.342 64.8746Z" fill="white"/>
<path fill-rule="evenodd" clip-rule="evenodd" d="M196.233 29.9328C198.573 29.2389 203.842 28.7155 205.92 30.2675C207.205 31.2292 207.516 32.8421 207.516 34.5767V41.0708C215.466 37.9059 225.037 40.9065 228.479 49.6283C230.897 55.739 230.118 65.0207 224.83 69.8472C221.406 72.9695 216.563 74.1563 211.762 74.1563C206.962 74.1563 202.709 73.1095 199.151 70.5775C197.208 69.2081 196.233 67.4431 196.233 65.2702V29.9267V29.9328ZM211.762 65.2641C216.471 65.2641 218.201 61.6062 218.201 56.9745C218.201 49.2387 213.151 47.0659 207.449 49.7561V64.2112C208.679 64.9902 210.123 65.2702 211.762 65.2702V65.2641Z" fill="white"/>
<path fill-rule="evenodd" clip-rule="evenodd" d="M270.88 74.1502C259.969 74.1502 252.433 67.8569 252.433 56.5119C252.433 38.7458 271.952 36.366 280.402 43.8523C283.296 46.4207 284.813 49.9995 284.813 53.9252C284.813 56.9988 282.967 58.4596 280.03 58.8917C274.566 59.7073 269.101 60.5289 263.643 61.3506C265.641 67.3213 276.119 66.311 280.895 63.4078C284.264 65.5015 285.763 72.2634 275.845 73.7424C274.078 74.0041 272.415 74.138 270.868 74.138C270.868 74.138 270.874 74.138 270.88 74.138V74.1502ZM269.022 48.1006C265.367 48.1006 263.058 50.4621 262.851 53.9313C266.634 53.3105 270.417 52.6897 274.2 52.075C274.066 51.1924 273.579 50.3038 272.744 49.4274C271.897 48.5388 270.667 48.1006 269.022 48.1006Z" fill="white"/>
<path fill-rule="evenodd" clip-rule="evenodd" d="M213.675 91.6424C213.675 87.0411 217.409 83.3163 222.009 83.3163C226.609 83.3163 230.343 87.0472 230.343 91.6424C230.343 96.2376 226.609 99.9686 222.009 99.9686C217.409 99.9686 213.675 96.2376 213.675 91.6424Z" fill="white"/>
<mask id="mask0_1_54" style="mask-type:luminance" maskUnits="userSpaceOnUse" x="213" y="83" width="18" height="17">
<path d="M213.675 91.6424C213.675 87.0411 217.409 83.3163 222.009 83.3163C226.609 83.3163 230.343 87.0472 230.343 91.6424C230.343 96.2376 226.609 99.9686 222.009 99.9686C217.409 99.9686 213.675 96.2376 213.675 91.6424Z" fill="white"/>
</mask>
<g mask="url(#mask0_1_54)">
<path fill-rule="evenodd" clip-rule="evenodd" d="M217.032 96.7245C217.032 96.7245 219.006 99.1287 221.729 99.9625C222.874 100.316 226.109 99.226 227.486 97.9296C231.019 94.5882 230.27 90.9851 230.27 90.9851L227.888 87.5463L217.026 96.7245H217.032Z" fill="#CACCDB"/>
</g>
<path fill-rule="evenodd" clip-rule="evenodd" d="M214.893 91.6425C214.893 87.7167 218.08 84.5336 222.009 84.5336C225.938 84.5336 229.125 87.7167 229.125 91.6425C229.125 95.5682 225.938 98.7513 222.009 98.7513C218.08 98.7513 214.893 95.5682 214.893 91.6425Z" fill="url(#paint0_radial_1_54)"/>
<path fill-rule="evenodd" clip-rule="evenodd" d="M214.284 90.4252C214.284 86.4995 217.47 83.3163 221.4 83.3163C225.329 83.3163 228.515 86.4995 228.515 90.4252C228.515 94.3509 225.329 97.534 221.4 97.534C217.47 97.534 214.284 94.3509 214.284 90.4252Z" fill="url(#paint1_linear_1_54)"/>
<path d="M221.394 84.0527C224.915 84.0527 227.778 86.9133 227.778 90.4312C227.778 93.9492 224.915 96.8098 221.394 96.8098C217.872 96.8098 215.009 93.9492 215.009 90.4312C215.009 86.9133 217.872 84.0527 221.394 84.0527ZM221.394 83.3224C217.47 83.3224 214.278 86.4994 214.278 90.4312C214.278 94.363 217.464 97.5401 221.394 97.5401C225.323 97.5401 228.509 94.3569 228.509 90.4312C228.509 86.5055 225.323 83.3224 221.394 83.3224Z" fill="url(#paint2_radial_1_54)"/>
<path fill-rule="evenodd" clip-rule="evenodd" d="M196.97 95.7203C195.996 96.7489 192.901 97.0837 192.901 91.8007V86.9316H196.763C198.353 86.9316 198.359 84.5153 196.763 84.5153H192.901V81.2956C192.901 79.7071 190.494 79.7132 190.494 81.2956V84.5153C188.454 84.5153 188.466 86.9316 190.494 86.9316C190.494 90.1939 190.105 94.357 191.695 96.7124C194.479 100.827 200.589 97.6923 198.694 95.7325C197.976 94.99 196.97 95.5925 196.97 95.7203Z" fill="#F9F1F7"/>
<path fill-rule="evenodd" clip-rule="evenodd" d="M253.45 85.1909C251.605 84.1136 249.07 84.3206 247.358 85.7022C247.358 84.144 244.94 84.138 244.94 85.7143V97.5097C244.94 99.0983 247.358 99.1043 247.358 97.5097V91.4173C247.358 86.5908 251.72 85.6961 253.402 88.4045C254.206 89.6948 256.295 88.5323 255.436 87.1203C254.931 86.3108 254.261 85.6535 253.444 85.1848H253.457L253.45 85.1909Z" fill="#F9F1F7"/>
<path fill-rule="evenodd" clip-rule="evenodd" d="M281.48 94.8074C279.781 97.0228 275.151 97.1384 274.121 93.1762C277.015 92.2207 279.902 91.259 282.796 90.3034C284.874 89.64 282.595 86.5908 281.499 85.7022C277.898 82.7868 271.465 85.337 271.465 91.4477C271.465 99.4878 280.195 100.559 283.399 96.2681C284.307 95.0508 282.51 93.5414 281.48 94.8074ZM278.16 86.9316C279.311 86.9316 280.164 87.5585 280.767 88.441C278.489 89.1957 276.211 89.9444 273.932 90.6991C274.206 88.5201 275.778 86.9316 278.166 86.9316H278.16Z" fill="#F9F1F7"/>
<path fill-rule="evenodd" clip-rule="evenodd" d="M166.942 86.9316C168.995 86.9316 170.287 87.4915 170.896 88.654C171.201 89.2079 171.81 89.4513 172.48 89.1835C172.919 89.0009 173.175 88.6053 173.175 88.0941C173.175 87.9054 173.126 87.7167 173.034 87.528C172.523 86.536 171.7 85.7569 170.598 85.2274C169.629 84.7527 168.398 84.5092 166.942 84.5092C165.224 84.5092 163.841 84.8014 162.836 85.3856C161.667 86.0612 161.051 87.1324 161.051 88.5019C161.051 89.9383 161.746 91.046 163.062 91.7155C163.896 92.1476 165.145 92.5006 166.888 92.811C168.35 93.0666 169.361 93.3344 169.891 93.6022C170.062 93.6935 170.22 93.7909 170.348 93.8761C170.622 94.0831 170.744 94.3448 170.744 94.7404C170.744 95.416 170.458 95.6777 170.226 95.8116C169.873 96.0368 169.129 96.3107 167.576 96.3107C166.449 96.3107 165.499 96.1403 164.767 95.8055C164.073 95.489 163.598 95.0934 163.324 94.5761C163.001 93.9918 162.355 93.7605 161.709 94.0709C161.295 94.2778 161.057 94.6674 161.057 95.1421C161.057 95.349 161.106 95.5438 161.204 95.7203C161.734 96.7002 162.593 97.461 163.762 97.9905C164.822 98.4774 166.108 98.727 167.588 98.727C172.206 98.727 173.175 96.5602 173.175 94.7343C173.175 93.2797 172.48 92.1659 171.17 91.5024C170.323 91.0825 169.069 90.7356 167.326 90.4373C166.029 90.2121 165.096 89.9748 164.548 89.7435C164.298 89.6339 164.079 89.5061 163.878 89.3479C163.604 89.1409 163.482 88.8792 163.482 88.5019C163.482 88.1245 163.482 86.9316 166.955 86.9316H166.942Z" fill="#F9F1F7"/>
<path fill-rule="evenodd" clip-rule="evenodd" d="M174.887 39.7318C183.056 39.7318 190.811 42.5681 190.811 51.8619V66.7127C190.811 68.989 189.361 70.3341 187.558 71.4174C182.276 74.5884 170.159 75.2336 164.231 71.3505C158.688 67.7169 158.962 59.5673 162.739 56.165C164.554 54.5339 167.363 53.5113 171.164 53.1157C174.064 52.8053 176.958 52.501 179.858 52.1906C179.858 50.7603 179.651 49.6952 178.164 48.9709C174.606 47.2302 167.838 48.4414 164.061 49.9995C162.142 48.6727 159.985 43.2862 165.383 41.1195C166.668 40.6326 168.179 40.2796 169.928 40.0544L174.893 39.7318H174.887ZM175.41 65.7815C176.635 65.7815 178.901 65.5319 179.925 64.9233V59.616C177.652 59.8047 173.802 59.8655 172.096 60.8089C170.421 61.7401 170.604 63.8886 171.926 64.9537C172.614 65.5076 173.772 65.7815 175.41 65.7815Z" fill="#FCFFFF"/>
<path fill-rule="evenodd" clip-rule="evenodd" d="M82.1461 73.5416C79.6179 74.0041 74.7381 74.8075 72.5267 73.146C71.2291 72.1721 70.8696 70.5958 70.8696 68.8368V30.3892C73.3979 29.9267 78.2776 29.1293 80.4891 30.7848C81.7867 31.7587 82.1461 33.335 82.1461 35.094V73.5477V73.5416Z" fill="#FCFFFF"/>
<path fill-rule="evenodd" clip-rule="evenodd" d="M51.4784 51.6611C52.9344 52.8114 53.9518 53.6879 54.366 55.3799C55.3408 59.336 54.0188 61.3506 50.9484 63.0913C44.576 66.7675 38.2037 70.4436 31.8252 74.1198C31.8252 81.2774 30.7956 84.8622 37.9965 84.8622C39.5256 84.8622 41.8041 84.5884 43.1078 84.2049V73.2008C48.5237 75.0936 56.3094 73.9555 60.5556 69.7802C63.8758 66.5118 65.1369 61.9349 65.1369 57.0171C65.1369 45.5139 57.607 39.8535 46.623 39.8535C42.6022 39.8535 38.6606 40.5535 35.4622 42.3185C40.6222 45.2948 45.7822 48.2771 50.9484 51.2533C50.9484 51.2533 51.2834 51.5029 51.4784 51.6611Z" fill="#FCFFFF"/>
<mask id="mask1_1_54" style="mask-type:luminance" maskUnits="userSpaceOnUse" x="13" y="37" width="44" height="49">
<path d="M16.3878 38.0581C19.8847 36.7069 22.9856 39.0319 25.7331 40.5839C30.4301 43.2497 51.7525 55.4955 53.3365 56.3598C56.4618 58.064 57.3817 62.5435 55.3286 64.6068C51.3992 68.5508 24.0456 83.298 21.3346 84.8318C14.5906 87.4185 13.7621 83.1581 13.7621 75.7023C13.7621 66.7249 13.7621 53.7122 13.7621 44.8139C13.7621 42.3916 13.5915 39.3545 16.3878 38.0581Z" fill="white"/>
</mask>
<g mask="url(#mask1_1_54)">
<path fill-rule="evenodd" clip-rule="evenodd" d="M16.3878 38.0581C19.8847 36.7069 22.9856 39.0319 25.7331 40.5839C30.4301 43.2497 51.7525 55.4955 53.3365 56.3598C56.4618 58.064 57.3817 62.5435 55.3286 64.6068C51.3992 68.5508 24.0456 83.298 21.3346 84.8318C14.5906 87.4185 13.7621 83.1581 13.7621 75.7023C13.7621 66.7249 13.7621 53.7122 13.7621 44.8139C13.7621 42.3916 13.5915 39.3545 16.3878 38.0581Z" fill="white"/>
<path fill-rule="evenodd" clip-rule="evenodd" d="M21.7854 84.5823C21.036 84.5336 17.8925 80.267 17.8925 80.267L32.008 75.5318L31.8008 79.5732C31.8008 79.5732 23.6313 84.704 21.7854 84.5823Z" fill="#CACCDB"/>
</g>
<path fill-rule="evenodd" clip-rule="evenodd" d="M18.6419 38.7032C21.7733 37.4981 24.5513 39.5736 27.0125 40.9552C31.216 43.3289 54.5732 54.5278 54.5732 54.5278C54.5732 54.5278 54.5732 58.3622 54.5062 60.6202C54.494 61.0828 54.226 61.448 54.0067 61.728C50.9423 65.6415 25.526 79.0802 23.0709 80.3888C21.1397 81.3017 19.7202 81.2408 18.7211 80.8209C16.6254 79.9445 16.2843 76.7491 16.2843 72.2513C16.2843 64.2538 16.2843 52.6471 16.2843 44.7226C16.2843 42.562 16.132 39.8596 18.6358 38.7032H18.6419Z" fill="url(#paint3_linear_1_54)"/>
<mask id="mask2_1_54" style="mask-type:luminance" maskUnits="userSpaceOnUse" x="31" y="39" width="35" height="46">
<path d="M51.4784 51.6611C51.7099 51.8437 51.9292 52.0202 52.1364 52.1967C53.2391 53.1157 54.5732 54.0409 54.5732 55.5077C54.5732 59.4577 54.0128 61.3506 50.9423 63.0974C44.57 66.7735 38.1976 70.4497 31.8192 74.1259C31.8192 81.2834 30.7896 84.8683 37.9905 84.8683C39.5196 84.8683 41.7981 84.5944 43.1018 84.211V73.2068C48.5177 75.0997 56.3034 73.9615 60.5496 69.7863C63.8698 66.5179 65.1309 61.941 65.1309 57.0232C65.1309 45.5199 57.601 39.8596 46.6169 39.8596C42.5961 39.8596 38.6545 40.5596 35.4562 42.3246C31.8192 47.0902 31.8192 70.2306 31.8192 74.1198L43.1505 67.583V51.229C43.1505 51.229 47.744 49.9265 51.4662 51.6672L51.4784 51.6611Z" fill="white"/>
</mask>
<g mask="url(#mask2_1_54)">
<path fill-rule="evenodd" clip-rule="evenodd" d="M54.5732 55.5442L63.8576 65.4346C63.1448 69.2142 61.3477 69.4698 60.8055 70.0054C56.5593 74.1807 48.7735 75.3127 43.3576 73.426V84.4301C42.0539 84.8196 39.7755 85.0874 38.2463 85.0874C35.8948 85.0874 33.7747 85.9274 32.0202 84.0284C30.8079 82.7137 31.8984 75.757 31.8984 75.757V75.6231C38.3316 71.9287 45.8067 67.583 51.85 63.6269C54.9205 61.8801 54.5854 56.2807 54.5671 55.5686C54.5671 55.5625 54.5671 55.5381 54.5671 55.5381L54.5732 55.5442Z" fill="#CACCDB"/>
</g>
<path fill-rule="evenodd" clip-rule="evenodd" d="M18.715 33.2498C21.8463 32.0447 24.6243 34.1202 27.0856 35.5018C31.2891 37.8755 50.394 48.7883 51.8135 49.5613C54.6098 51.0829 55.4322 55.0755 53.5985 56.9075C50.0772 60.4255 25.5747 73.5659 23.1501 74.9354C17.1067 77.2421 16.3695 73.4442 16.3695 66.7979C16.3695 58.8004 16.3695 47.1937 16.3695 39.2692C16.3695 37.1086 16.2172 34.4062 18.7211 33.2498H18.715Z" fill="url(#paint4_linear_1_54)"/>
<path d="M20.6462 34.7166C22.1266 34.7166 23.6862 35.6357 25.2031 36.5243C25.5382 36.719 25.8671 36.9138 26.19 37.0964C28.0298 38.1311 32.6416 40.7665 37.5335 43.5479C43.7292 47.078 50.132 50.7238 50.9423 51.1681C51.8744 51.6732 52.5567 52.6897 52.7212 53.8217C52.8309 54.5825 52.6785 55.2581 52.3069 55.6233C50.4184 57.5101 41.0365 63.073 24.4233 72.1539C23.4668 72.6773 22.7601 73.0668 22.3763 73.2799C21.4625 73.6207 20.7071 73.7911 20.1284 73.7911C19.1049 73.7911 18.1911 73.2555 18.1911 66.804V58.7152C18.1911 52.0932 18.1911 44.7957 18.1911 39.2753V38.9223C18.1789 36.6399 18.3007 35.4896 19.4278 34.9357C19.8298 34.7897 20.2258 34.7166 20.6462 34.7166ZM20.6462 32.8907C20.0187 32.8907 19.3729 33.0003 18.715 33.2498C16.2111 34.4062 16.3634 37.1086 16.3634 39.2692C16.3634 47.1937 16.3634 58.7943 16.3634 66.7979C16.3634 72.1174 16.8386 75.6109 20.1284 75.6109C20.9508 75.6109 21.9438 75.3918 23.15 74.9353C25.5747 73.5659 50.0772 60.4254 53.5985 56.9075C55.4383 55.0694 54.6158 51.0768 51.8135 49.5613C50.394 48.7883 31.2891 37.8755 27.0856 35.5018C25.1422 34.4123 23.0038 32.8907 20.6462 32.8907Z" fill="url(#paint5_linear_1_54)"/>
<defs>
<radialGradient id="paint0_radial_1_54" cx="0" cy="0" r="1" gradientUnits="userSpaceOnUse" gradientTransform="translate(222.003 91.6424) scale(7.1156 7.10888)">
<stop stop-color="#DD5225"/>
<stop offset="1" stop-color="#CA381F"/>
</radialGradient>
<linearGradient id="paint1_linear_1_54" x1="213.9" y1="82.872" x2="223.906" y2="92.9726" gradientUnits="userSpaceOnUse">
<stop offset="0.33" stop-color="#F9DD60"/>
<stop offset="0.38" stop-color="#F7D058"/>
<stop offset="0.57" stop-color="#F3AA41"/>
<stop offset="0.74" stop-color="#F08E30"/>
<stop offset="0.89" stop-color="#EE7D26"/>
<stop offset="1" stop-color="#EE7723"/>
</linearGradient>
<radialGradient id="paint2_radial_1_54" cx="0" cy="0" r="1" gradientUnits="userSpaceOnUse" gradientTransform="translate(221.394 90.4251) scale(7.11559 7.10888)">
<stop stop-color="#FFAD4C"/>
<stop offset="1" stop-color="#F9B237"/>
</radialGradient>
<linearGradient id="paint3_linear_1_54" x1="9.58293" y1="66.2623" x2="47.5676" y2="44.3081" gradientUnits="userSpaceOnUse">
<stop stop-color="#C7291C"/>
<stop offset="0.33" stop-color="#DC572A"/>
<stop offset="0.59" stop-color="#EB7734"/>
<stop offset="1" stop-color="#C7291C"/>
</linearGradient>
<linearGradient id="paint4_linear_1_54" x1="18.849" y1="36.1652" x2="39.157" y2="68.5133" gradientUnits="userSpaceOnUse">
<stop stop-color="#F6E579"/>
<stop offset="0.1" stop-color="#FAD752"/>
<stop offset="0.19" stop-color="#FFCC33"/>
<stop offset="0.4" stop-color="#F8AD2D"/>
<stop offset="0.64" stop-color="#F28F27"/>
<stop offset="0.85" stop-color="#EF7D24"/>
<stop offset="1" stop-color="#EE7723"/>
</linearGradient>
<linearGradient id="paint5_linear_1_54" x1="16.3573" y1="54.2478" x2="54.5793" y2="54.2478" gradientUnits="userSpaceOnUse">
<stop stop-color="#F8AF48"/>
<stop offset="1" stop-color="#FDAB54"/>
</linearGradient>
</defs>
</svg>
